<svg version="1.1" viewBox="0.0 0.0 960.0 720.0" fill="none" stroke="none" stroke-linecap="square" stroke-miterlimit="10" xmlns:xlink="http://www.w3.org/1999/xlink" xmlns="http://www.w3.org/2000/svg"><clipPath id="p.0"><path d="m0 0l960.0 0l0 720.0l-960.0 0l0 -720.0z" clip-rule="nonzero"/></clipPath><g clip-path="url(#p.0)"><path fill="#000000" fill-opacity="0.0" d="m0 0l960.0 0l0 720.0l-960.0 0z" fill-rule="evenodd"/><path fill="#cc0000" d="m437.72925 0l90.3186 0l0 0c11.83197 -1.03123805E-14 21.423706 9.137622 21.423706 20.409449c0 11.271828 -9.591736 20.409449 -21.423706 20.409449l-90.3186 0l0 0c-11.83197 0 -21.423676 -9.137621 -21.423676 -20.409449c0 -11.271827 9.591705 -20.409449 21.423676 -20.409449z" fill-rule="evenodd"/><path fill="#ffffff" d="m458.26776 26.4257q-0.765625 0 -1.484375 -0.109375q-0.71875 -0.09375 -1.1875 -0.265625l0 -1.484375q0.53125 0.21875 1.171875 0.328125q0.65625 0.109375 1.28125 0.109375q0.921875 0 1.28125 -0.15625q0.375 -0.15625 0.375 -0.625q0 -0.421875 -0.34375 -0.609375q-0.328125 -0.203125 -1.25 -0.5l-0.484375 -0.15625q-1.140625 -0.390625 -1.671875 -0.859375q-0.53125 -0.46875 -0.53125 -1.390625q0 -1.078125 0.765625 -1.625q0.765625 -0.5625 2.40625 -0.5625q0.625 0 1.21875 0.109375q0.609375 0.09375 1.03125 0.234375l0 1.453125q-0.421875 -0.171875 -0.96875 -0.265625q-0.53125 -0.09375 -1.015625 -0.09375q-0.875 0 -1.28125 0.15625q-0.390625 0.140625 -0.390625 0.5625q0 0.359375 0.296875 0.546875q0.3125 0.1875 1.203125 0.46875l0.34375 0.109375q0.9375 0.296875 1.4375 0.59375q0.515625 0.296875 0.75 0.71875q0.234375 0.421875 0.234375 1.09375q0 2.21875 -3.1875 2.21875zm8.736511 0q-2.015625 0 -3.09375 -0.984375q-1.0625 -1.0 -1.0625 -2.984375q0 -1.875 0.9375 -2.90625q0.953125 -1.03125 2.8125 -1.03125q1.671875 0 2.5625 0.890625q0.90625 0.875 0.90625 2.34375l0 1.40625l-5.546875 0q0.125 1.09375 0.78125 1.515625q0.65625 0.421875 2.0625 0.421875q0.578125 0 1.171875 -0.109375q0.59375 -0.109375 1.0625 -0.28125l0 1.28125q-1.0 0.4375 -2.59375 0.4375zm1.53125 -4.390625l0 -0.53125q0 -0.8125 -0.453125 -1.234375q-0.453125 -0.4375 -1.4375 -0.4375q-1.1875 0 -1.65625 0.515625q-0.46875 0.515625 -0.46875 1.6875l4.015625 0zm6.1232605 4.390625q-1.203125 0 -1.8125 -0.625q-0.609375 -0.640625 -0.609375 -1.78125l0 -3.96875l-1.109375 0l0 -1.359375l1.109375 0l0 -1.75l1.734375 -0.53125l0 2.28125l2.015625 0l-0.109375 1.359375l-1.90625 0l0 3.859375q0 0.65625 0.296875 0.921875q0.296875 0.265625 1.0 0.265625q0.421875 0 0.90625 -0.15625l0 1.234375q-0.625 0.25 -1.515625 0.25zm5.25177 0q-1.359375 0 -2.09375 -0.75q-0.734375 -0.765625 -0.734375 -2.203125l0 -4.78125l1.75 0l0 4.78125q0 0.84375 0.40625 1.25q0.421875 0.390625 1.296875 0.390625q0.609375 0 1.15625 -0.21875q0.546875 -0.234375 0.96875 -0.65625l0 -5.546875l1.71875 0l0 7.578125l-1.578125 0l-0.078125 -0.78125q-1.203125 0.9375 -2.8125 0.9375zm6.5136414 -7.734375l1.5 0l0.09375 0.75q0.53125 -0.46875 1.140625 -0.6875q0.609375 -0.234375 1.421875 -0.234375q1.6875 0 2.5625 0.921875q0.890625 0.90625 0.890625 2.90625q0 2.015625 -0.9375 3.046875q-0.921875 1.03125 -2.578125 1.03125q-1.375 0 -2.359375 -0.640625l0 3.9375l-1.734375 0l0 -11.03125zm3.640625 6.421875q1.125 0 1.65625 -0.6875q0.546875 -0.6875 0.546875 -2.09375q0 -1.34375 -0.5 -1.90625q-0.484375 -0.578125 -1.65625 -0.578125q-1.171875 0 -1.953125 0.8125l0 3.78125q0.765625 0.671875 1.90625 0.671875zm13.419525 2.3125q-1.109375 -0.984375 -1.640625 -2.59375q-0.515625 -1.609375 -0.515625 -3.40625q0 -1.8125 0.515625 -3.40625q0.53125 -1.609375 1.640625 -2.593751l1.96875 0q-2.359375 2.046876 -2.359375 6.000001q0 3.953125 2.359375 6.0l-1.96875 0zm2.7312622 0q1.234375 -1.078125 1.796875 -2.578125q0.5625 -1.5 0.5625 -3.421875q0 -3.96875 -2.359375 -6.000001l1.984375 0q1.09375 0.98437595 1.609375 2.593751q0.53125 1.609375 0.53125 3.40625q0 1.796875 -0.53125 3.40625q-0.515625 1.609375 -1.609375 2.59375l-1.984375 0z" fill-rule="nonzero"/><path fill="#cc0000" d="m431.95328 680.7979l90.31857 0l0 0c11.832031 0 21.423706 9.137634 21.423706 20.409424c0 11.271851 -9.591675 20.409485 -21.423706 20.409485l-90.31857 0l0 0c-11.83197 0 -21.423676 -9.137634 -21.423676 -20.409485c0 -11.27179 9.591705 -20.409424 21.423676 -20.409424z" fill-rule="evenodd"/><path fill="#ffffff" d="m468.3803 707.2236q-2.015625 0 -3.09375 -0.984375q-1.0625 -1.0 -1.0625 -2.984375q0 -1.875 0.9375 -2.90625q0.953125 -1.03125 2.8125 -1.03125q1.671875 0 2.5625 0.890625q0.90625 0.875 0.90625 2.34375l0 1.40625l-5.546875 0q0.125 1.09375 0.78125 1.515625q0.65625 0.421875 2.0625 0.421875q0.578125 0 1.171875 -0.109375q0.59375 -0.109375 1.0625 -0.28125l0 1.28125q-1.0 0.4375 -2.59375 0.4375zm1.53125 -4.390625l0 -0.53125q0 -0.8125 -0.453125 -1.234375q-0.453125 -0.4375 -1.4375 -0.4375q-1.1875 0 -1.65625 0.515625q-0.46875 0.515625 -0.46875 1.6875l4.015625 0zm3.2326355 -3.34375l1.59375 0l0.078125 0.796875q0.546875 -0.4375 1.265625 -0.703125q0.71875 -0.265625 1.53125 -0.265625q1.46875 0 2.140625 0.6875q0.671875 0.6875 0.671875 2.15625l0 4.90625l-1.71875 0l0 -4.828125q0 -0.890625 -0.375 -1.234375q-0.359375 -0.359375 -1.34375 -0.359375q-0.59375 0 -1.15625 0.25q-0.5625 0.234375 -0.953125 0.625l0 5.546875l-1.734375 0l0 -7.578125zm12.373016 7.734375q-1.640625 0 -2.546875 -0.859375q-0.90625 -0.875 -0.90625 -2.84375q0 -1.328125 0.453125 -2.265625q0.46875 -0.953125 1.28125 -1.4375q0.828125 -0.5 1.875 -0.5q0.671875 0 1.21875 0.171875q0.546875 0.15625 1.046875 0.484375l0 -3.6875l1.734375 0l0 10.78125l-1.484375 0l-0.109375 -0.75q-0.53125 0.484375 -1.140625 0.703125q-0.609375 0.203125 -1.421875 0.203125zm0.46875 -1.3125q1.171875 0 1.953125 -0.796875l0 -3.796875q-0.75 -0.671875 -1.890625 -0.671875q-1.109375 0 -1.671875 0.75q-0.546875 0.734375 -0.546875 2.140625q0 1.328125 0.5 1.859375q0.5 0.515625 1.65625 0.515625z" fill-rule="nonzero"/><path fill="#000000" fill-opacity="0.0" d="m477.11258 646.5617l0 34.236206" fill-rule="evenodd"/><path stroke="#000000" stroke-width="1.0" stroke-linejoin="round" stroke-linecap="butt" d="m477.11258 646.5617l0 28.236206" fill-rule="evenodd"/><path fill="#000000" stroke="#000000" stroke-width="1.0" stroke-linecap="butt" d="m475.46085 674.7979l1.6517334 4.538086l1.6517334 -4.538086z" fill-rule="evenodd"/><path fill="#4a86e8" d="m413.5525 412.56693l127.1181 0l0 58.992126l-127.1181 0z" fill-rule="evenodd"/><path fill="#ffffff" d="m436.17972 435.298q0 -1.59375 1.265625 -1.984375l-1.734375 -0.421875l0 -1.796875q0.71875 -0.640625 1.78125 -1.046875q1.0625 -0.421875 2.359375 -0.421875q1.96875 0 2.953125 0.8125q1.0 0.8125 1.0 2.625l0 5.359375l-1.734375 0l0 -5.40625q0 -1.109375 -0.515625 -1.546875q-0.515625 -0.4375 -1.765625 -0.4375q-0.78125 0 -1.484375 0.234375q-0.6875 0.21875 -1.09375 0.578125l0 0.296875l1.828125 0.453125l0 1.15625q-0.625 0.15625 -0.890625 0.515625q-0.25 0.34375 -0.25 1.046875l0 3.109375l-1.71875 0l0 -3.125zm6.745514 -6.4375q-0.765625 0 -1.28125 -0.5q-0.53125 -0.5 -0.53125 -1.234375q0 -0.75 0.53125 -1.25q0.515625 -0.5 1.28125 -0.5q0.75 0 1.28125 0.5q0.515625 0.5 0.515625 1.25q0 0.734375 -0.515625 1.234375q-0.53125 0.5 -1.28125 0.5zm0 -1.0q0.3125 0 0.53125 -0.21875q0.203125 -0.234375 0.203125 -0.515625q0 -0.3125 -0.203125 -0.53125q-0.21875 -0.234375 -0.53125 -0.234375q-0.3125 0 -0.53125 0.234375q-0.234375 0.21875 -0.234375 0.53125q0 0.28125 0.234375 0.515625q0.234375 0.21875 0.53125 0.21875zm6.171875 5.125q0 -0.703125 -0.140625 -1.109375q-0.140625 -0.40625 -0.546875 -0.625q-0.40625 -0.21875 -1.171875 -0.21875q-0.515625 0 -1.125 0.109375q-0.59375 0.109375 -1.078125 0.3125l0 -1.34375q0.5 -0.21875 1.1875 -0.34375q0.6875 -0.140625 1.34375 -0.140625q1.734375 0 2.5 0.75q0.78125 0.75 0.78125 2.390625l0 5.65625l-1.75 0l0 -5.4375zm3.7900085 -3.203125l1.734375 0l0 2.71875l2.5 0q0.90625 0 1.28125 -0.375q0.375 -0.390625 0.375 -1.21875l0 -1.125l1.734375 0l0 1.078125q0 1.8125 -1.296875 2.28125q0.6875 0.234375 0.953125 0.765625q0.265625 0.53125 0.265625 1.328125l0 3.1875l-1.734375 0l0 -2.96875q0 -0.9375 -0.359375 -1.28125q-0.34375 -0.34375 -1.28125 -0.34375l-2.4375 0l0 4.59375l-1.734375 0l0 -8.640625zm12.601501 8.796875q-1.390625 0 -2.171875 -0.8125q-0.765625 -0.828125 -0.765625 -2.3125l0 -5.671875l1.734375 0l0 5.578125q0 0.96875 0.421875 1.40625q0.421875 0.421875 1.359375 0.421875q0.6875 0 1.328125 -0.28125q0.640625 -0.296875 1.0625 -0.75l0 -6.375l1.734375 0l0 8.640625l-1.578125 0l-0.09375 -0.9375q-1.265625 1.09375 -3.03125 1.09375zm9.945648 0q-1.609375 0 -2.578125 -1.078125q-0.953125 -1.078125 -0.953125 -3.265625q0 -2.203125 1.109375 -3.40625q1.125 -1.203125 3.3125 -1.203125q1.40625 0 2.34375 0.484375q0.9375 0.484375 1.375 1.28125q0.4375 0.796875 0.4375 1.75l0 5.28125l-1.75 0l0 -5.203125q0 -1.03125 -0.5625 -1.609375q-0.5625 -0.578125 -1.875 -0.578125q-1.390625 0 -2.046875 0.796875q-0.65625 0.796875 -0.65625 2.40625q0 1.578125 0.53125 2.265625q0.53125 0.6875 1.625 0.6875q0.734375 0 1.09375 -0.125l0 1.328125q-0.53125 0.1875 -1.40625 0.1875zm16.114288 0q-2.0 0 -3.21875 -0.515625l0 -1.53125q1.5 0.578125 3.0625 0.578125q1.296875 0 1.875 -0.296875q0.59375 -0.3125 0.59375 -1.140625q0 -0.53125 -0.25 -0.84375q-0.25 -0.3125 -0.8125 -0.53125q-0.5625 -0.234375 -1.671875 -0.515625q-1.671875 -0.4375 -2.34375 -1.09375q-0.671875 -0.671875 -0.671875 -1.828125q0 -1.375 1.0 -2.140625q1.015625 -0.765625 2.953125 -0.765625q0.84375 0 1.640625 0.125q0.796875 0.125 1.28125 0.296875l0 1.53125q-1.203125 -0.453125 -2.6875 -0.453125q-1.21875 0 -1.828125 0.3125q-0.59375 0.3125 -0.59375 1.09375q0 0.453125 0.21875 0.734375q0.21875 0.28125 0.734375 0.5q0.53125 0.21875 1.5625 0.46875q1.8125 0.46875 2.515625 1.203125q0.703125 0.734375 0.703125 1.90625q0 1.375 -1.03125 2.140625q-1.03125 0.765625 -3.03125 0.765625zm10.161285 0q-2.140625 0 -3.3125 -1.015625q-1.171875 -1.03125 -1.171875 -2.96875l0 -6.46875l1.75 0l0 6.40625q0 1.28125 0.703125 1.9375q0.703125 0.640625 2.03125 0.640625q1.3125 0 2.015625 -0.640625q0.703125 -0.65625 0.703125 -1.9375l0 -6.40625l1.734375 0l0 6.46875q0 1.9375 -1.171875 2.96875q-1.15625 1.015625 -3.28125 1.015625zm6.393402 -10.453125l1.78125 0l3.2655945 6.671875l3.25 -6.671875l1.796875 0l0 10.296875l-1.734375 0l0 -7.46875l-2.78125 5.6875l-1.0625 0l-2.7968445 -5.6875l0 7.46875l-1.71875 0l0 -10.296875z" fill-rule="nonzero"/><path fill="#ffffff" d="m446.27823 457.423q-1.671875 0 -1.671875 -1.65625l0 -6.984375l1.71875 0l0 6.546875q0 0.359375 0.171875 0.546875q0.171875 0.171875 0.53125 0.171875l0.734375 0l0 1.375l-1.484375 0zm7.146393 0.15625q-1.875 0 -2.90625 -0.875q-1.03125 -0.890625 -1.03125 -2.640625l0 -5.28125l1.734375 0l0 5.34375q0 1.0625 0.546875 1.5625q0.5625 0.5 1.65625 0.5q1.109375 0 1.671875 -0.5q0.5625 -0.5 0.5625 -1.5625l0 -7.90625l1.71875 0l0 7.84375q0 1.75 -1.03125 2.640625q-1.015625 0.875 -2.921875 0.875zm-2.1889954 -10.0625q-0.9375 0 -1.46875 -0.46875q-0.53125 -0.484375 -0.53125 -1.375q0 -0.890625 0.5625 -1.40625q0.5625 -0.53125 1.578125 -0.53125l3.53125 0l-0.078125 1.03125l-3.28125 0q-0.5625 0 -0.828125 0.21875q-0.265625 0.21875 -0.265625 0.6875q0 0.859375 0.890625 0.859375q0.84375 0 0.84375 -0.671875l0 -0.34375l1.0625 0l0 0.34375q0 0.328125 0.1875 0.484375q0.171875 0.140625 0.546875 0.140625l0.625 0l0 1.0l-0.734375 0q-0.40625 0 -0.71875 -0.109375q-0.3125 -0.125 -0.453125 -0.390625q-0.15625 0.265625 -0.578125 0.40625q-0.421875 0.125 -0.890625 0.125zm11.125 10.0625q-1.390625 0 -2.171875 -0.8125q-0.765625 -0.828125 -0.765625 -2.3125l0 -5.671875l1.734375 0l0 5.578125q0 0.96875 0.421875 1.40625q0.421875 0.421875 1.359375 0.421875q0.6875 0 1.328125 -0.28125q0.640625 -0.296875 1.0625 -0.75l0 -6.375l1.734375 0l0 8.640625l-1.578125 0l-0.09375 -0.9375q-1.265625 1.09375 -3.03125 1.09375zm6.742523 -5.625q0 -1.609375 0.953125 -2.46875q0.96875 -0.859375 2.953125 -0.859375q1.984375 0 2.9375 0.859375q0.953125 0.859375 0.953125 2.46875l0 5.46875l-1.734375 0l0 -5.625q0 -1.765625 -2.15625 -1.765625q-1.078125 0 -1.625 0.4375q-0.546875 0.421875 -0.546875 1.328125l0 1.765625q0.703125 -0.578125 1.6875 -0.578125l1.03125 0l0.0625 1.390625l-1.140625 0q-0.984375 0 -1.640625 0.546875l0 2.5l-1.734375 0l0 -5.46875zm6.058777 -7.125l1.734375 0l0 2.625l-1.734375 0l0 -2.625zm7.03125 7.15625q0 -0.703125 -0.140625 -1.109375q-0.140625 -0.40625 -0.546875 -0.625q-0.40625 -0.21875 -1.171875 -0.21875q-0.515625 0 -1.125 0.109375q-0.59375 0.109375 -1.078125 0.3125l0 -1.34375q0.5 -0.21875 1.1875 -0.34375q0.6875 -0.140625 1.34375 -0.140625q1.734375 0 2.5 0.75q0.78125 0.75 0.78125 2.390625l0 5.65625l-1.75 0l0 -5.4375zm6.6181335 5.59375q-0.875 0 -1.671875 -0.109375q-0.78125 -0.109375 -1.28125 -0.3125l0 -1.46875q0.59375 0.25 1.296875 0.375q0.703125 0.125 1.328125 0.125q1.171875 0 1.671875 -0.203125q0.5 -0.203125 0.5 -0.828125q0 -0.390625 -0.203125 -0.625q-0.1875 -0.234375 -0.53125 -0.375q-0.328125 -0.140625 -1.03125 -0.359375l-0.625 -0.21875q-1.3125 -0.4375 -1.96875 -0.96875q-0.640625 -0.546875 -0.640625 -1.53125q0 -1.15625 0.875 -1.796875q0.890625 -0.65625 2.59375 -0.65625q0.703125 0 1.421875 0.109375q0.71875 0.109375 1.21875 0.265625l0 1.453125q-0.515625 -0.203125 -1.171875 -0.3125q-0.640625 -0.109375 -1.203125 -0.109375q-1.015625 0 -1.53125 0.21875q-0.515625 0.21875 -0.515625 0.78125q0 0.34375 0.203125 0.578125q0.21875 0.21875 0.578125 0.375q0.375 0.140625 1.140625 0.390625l0.46875 0.15625q1.375 0.453125 1.984375 1.015625q0.609375 0.546875 0.609375 1.609375q0 1.21875 -0.9375 1.828125q-0.921875 0.59375 -2.578125 0.59375zm7.376526 0q-1.5 0 -2.59375 -0.46875l0 -1.390625q1.078125 0.46875 2.171875 0.46875q1.109375 0 1.734375 -0.296875q0.640625 -0.3125 0.90625 -0.984375q0.28125 -0.671875 0.28125 -1.796875q0 -1.671875 -0.6875 -2.375q-0.671875 -0.703125 -2.25 -0.703125q-1.109375 0 -2.15625 0.46875l0 -1.390625q1.140625 -0.484375 2.546875 -0.484375q2.125 0 3.171875 1.140625q1.0625 1.125 1.0625 3.34375q0 2.203125 -1.03125 3.34375q-1.015625 1.125 -3.15625 1.125zm10.514496 0q-0.953125 0 -1.6875 -0.28125q-0.71875 -0.28125 -1.34375 -0.8125l-0.09375 0.9375l-1.578125 0l0 -8.640625l1.734375 0l0 6.375q0.453125 0.453125 1.078125 0.75q0.625 0.28125 1.3125 0.28125q0.90625 0 1.34375 -0.421875q0.4375 -0.4375 0.4375 -1.40625l0 -5.578125l1.734375 0l0 5.671875q0 1.484375 -0.78125 2.3125q-0.765625 0.8125 -2.15625 0.8125z" fill-rule="nonzero"/><path fill="#000000" fill-opacity="0.0" d="m482.8878 45.226334l0 25.417328" fill-rule="evenodd"/><path stroke="#000000" stroke-width="1.0" stroke-linejoin="round" stroke-linecap="butt" d="m482.8878 45.226337l0 19.417324" fill-rule="evenodd"/><path fill="#000000" stroke="#000000" stroke-width="1.0" stroke-linecap="butt" d="m481.23605 64.64366l1.6517334 4.5380936l1.6517334 -4.5380936z" fill-rule="evenodd"/><path fill="#0f9d58" d="m380.3203 129.53806l13.62204 -54.48819l191.51181 0l-13.622009 54.48819z" fill-rule="evenodd"/><path fill="#ffffff" d="m413.92746 105.40396q0 -0.8125 0.265625 -1.34375q0.28125 -0.546875 0.96875 -0.75l-1.625 -0.4375l0 -2.0625q0.75 -0.625 1.84375 -1.03125q1.09375 -0.421875 2.40625 -0.421875q2.046875 0 3.078125 0.828125q1.03125 0.8125 1.03125 2.75l0 5.21875l-2.15625 0l0 -5.265625q0 -1.0 -0.46875 -1.421875q-0.46875 -0.4375 -1.59375 -0.4375q-0.6875 0 -1.296875 0.21875q-0.609375 0.203125 -0.984375 0.515625l0 0.234375l1.765625 0.46875l0 1.3125q-0.625 0.171875 -0.84375 0.53125q-0.21875 0.359375 -0.21875 1.109375l0 2.734375l-2.171875 0l0 -2.75zm6.9520264 -6.796875q-0.8125 0 -1.375 -0.515625q-0.5625 -0.53125 -0.5625 -1.328125q0 -0.796875 0.5625 -1.328125q0.5625 -0.53125 1.375 -0.53125q0.8125 0 1.375 0.53125q0.546875 0.53125 0.546875 1.328125q0 0.796875 -0.546875 1.328125q-0.5625 0.515625 -1.375 0.515625zm0 -1.140625q0.28125 0 0.5 -0.21875q0.203125 -0.21875 0.203125 -0.484375q0 -0.296875 -0.203125 -0.5q-0.21875 -0.21875 -0.5 -0.21875q-0.28125 0 -0.5 0.21875q-0.21875 0.203125 -0.21875 0.5q0 0.265625 0.21875 0.484375q0.21875 0.21875 0.5 0.21875zm5.984375 5.375q0 -0.921875 -0.359375 -1.359375q-0.359375 -0.453125 -1.328125 -0.453125q-0.5 0 -1.09375 0.125q-0.59375 0.109375 -1.078125 0.296875l0 -1.578125q0.5 -0.234375 1.203125 -0.375q0.703125 -0.140625 1.390625 -0.140625q1.8125 0 2.609375 0.765625q0.8125 0.765625 0.8125 2.421875l0 5.609375l-2.15625 0l0 -5.3125zm4.0575256 -3.328125l2.171875 0l0 2.625l2.140625 0q0.796875 0 1.125 -0.34375q0.328125 -0.359375 0.328125 -1.109375l0 -1.171875l2.15625 0l0 1.09375q0 1.796875 -1.234375 2.296875q0.640625 0.265625 0.90625 0.765625q0.265625 0.5 0.265625 1.265625l0 3.21875l-2.15625 0l0 -2.96875q0 -0.828125 -0.3125 -1.140625q-0.3125 -0.328125 -1.125 -0.328125l-2.09375 0l0 4.4375l-2.171875 0l0 -8.640625zm12.76001 8.796875q-1.390625 0 -2.203125 -0.84375q-0.796875 -0.84375 -0.796875 -2.34375l0 -5.609375l2.171875 0l0 5.484375q0 0.875 0.375 1.265625q0.390625 0.375 1.171875 0.375q0.59375 0 1.171875 -0.25q0.59375 -0.265625 0.9375 -0.65625l0 -6.21875l2.15625 0l0 8.640625l-1.984375 0l-0.09375 -0.84375q-1.25 1.0 -2.90625 1.0zm10.184906 0q-1.640625 0 -2.625 -1.0625q-0.984375 -1.0625 -0.984375 -3.234375q0 -2.234375 1.140625 -3.4375q1.15625 -1.21875 3.375 -1.21875q1.46875 0 2.453125 0.5q0.984375 0.484375 1.4375 1.3125q0.453125 0.8125 0.453125 1.765625l0 5.21875l-2.15625 0l0 -5.078125q0 -0.96875 -0.515625 -1.5q-0.5 -0.546875 -1.703125 -0.546875q-2.4375 0 -2.4375 2.984375q0 1.40625 0.484375 2.015625q0.484375 0.609375 1.46875 0.609375q0.734375 0 1.109375 -0.125l0 1.578125q-0.59375 0.21875 -1.5 0.21875zm15.504913 -4.015625l-2.796875 -3.71875l2.34375 0l1.625 2.203125l1.625 -2.203125l2.34375 0l-2.78125 3.71875l2.890625 3.859375l-2.34375 0l-1.734375 -2.3125l-1.734375 2.3125l-2.34375 0l2.90625 -3.859375zm15.448151 4.015625q-0.921875 0 -1.75 -0.125q-0.8125 -0.125 -1.3125 -0.328125l0 -1.75q0.578125 0.234375 1.3125 0.390625q0.734375 0.140625 1.34375 0.140625q1.09375 0 1.53125 -0.171875q0.453125 -0.171875 0.453125 -0.65625q0 -0.296875 -0.171875 -0.484375q-0.15625 -0.203125 -0.46875 -0.328125q-0.3125 -0.140625 -0.984375 -0.359375l-0.6875 -0.234375q-1.296875 -0.4375 -1.90625 -0.96875q-0.59375 -0.546875 -0.59375 -1.5q0 -1.1875 0.921875 -1.875q0.921875 -0.703125 2.671875 -0.703125q0.71875 0 1.484375 0.109375q0.765625 0.109375 1.25 0.265625l0 1.734375q-0.484375 -0.203125 -1.171875 -0.3125q-0.671875 -0.125 -1.25 -0.125q-0.875 0 -1.375 0.1875q-0.484375 0.1875 -0.484375 0.671875q0 0.359375 0.328125 0.5625q0.34375 0.1875 1.25 0.46875q0.296875 0.078125 0.734375 0.25q0.9375 0.3125 1.46875 0.65625q0.53125 0.328125 0.78125 0.796875q0.25 0.46875 0.25 1.1875q0 1.234375 -0.953125 1.875q-0.953125 0.625 -2.671875 0.625zm-0.81137085 -12.53125l1.765625 0l0 1.078125l3.984375 0l-0.078125 1.46875l-5.671875 0l0 -2.546875zm10.0625 12.53125q-1.953125 0 -3.046875 -0.921875q-1.078125 -0.921875 -1.078125 -2.703125l0 -5.171875l2.171875 0l0 5.203125q0 0.96875 0.484375 1.453125q0.484375 0.46875 1.46875 0.46875q0.96875 0 1.453125 -0.46875q0.484375 -0.484375 0.484375 -1.453125l0 -5.203125l2.171875 0l0 5.171875q0 1.78125 -1.09375 2.703125q-1.078125 0.921875 -3.015625 0.921875zm6.0030212 -5.515625q0 -1.625 1.0 -2.53125q1.0 -0.90625 3.078125 -0.90625q2.09375 0 3.078125 0.90625q1.0 0.90625 1.0 2.53125l0 5.359375l-2.171875 0l0 -5.515625q0 -0.78125 -0.5 -1.1875q-0.5 -0.421875 -1.40625 -0.421875q-0.9375 0 -1.421875 0.421875q-0.484375 0.40625 -0.484375 1.1875l0 1.546875q0.671875 -0.515625 1.5 -0.515625l1.03125 0l0.078125 1.71875l-1.15625 0q-0.84375 0 -1.453125 0.46875l0 2.296875l-2.171875 0l0 -5.359375zm5.9855347 -7.109375l2.171875 0l0 2.640625l-2.171875 0l0 -2.640625zm7.1249695 7.15625q0 -0.921875 -0.359375 -1.359375q-0.359375 -0.453125 -1.3280945 -0.453125q-0.5 0 -1.09375 0.125q-0.59375 0.109375 -1.078125 0.296875l0 -1.578125q0.5 -0.234375 1.203125 -0.375q0.703125 -0.140625 1.390625 -0.140625q1.8124695 0 2.6093445 0.765625q0.8125 0.765625 0.8125 2.421875l0 5.609375l-2.15625 0l0 -5.3125zm7.354431 5.46875q-1.640625 0 -2.625 -1.0625q-0.984375 -1.0625 -0.984375 -3.234375q0 -2.265625 0.78125 -3.453125q0.796875 -1.203125 2.203125 -1.203125q0.640625 0 1.046875 0.203125q0.40625 0.203125 0.671875 0.609375q0.3125 -0.375 0.875 -0.59375q0.578125 -0.21875 1.171875 -0.21875q1.09375 0 1.640625 0.671875q0.5625 0.671875 0.5625 1.828125l0 6.296875l-2.15625 0l0 -5.96875q0 -0.59375 -0.15625 -0.875q-0.15625 -0.28125 -0.578125 -0.28125q-0.296875 0 -0.53125 0.1875q-0.21875 0.1875 -0.3125 0.546875l-1.046875 0q-0.171875 -0.390625 -0.359375 -0.5625q-0.171875 -0.171875 -0.484375 -0.171875q-0.71875 0 -1.0 0.765625q-0.28125 0.765625 -0.28125 2.21875q0 1.40625 0.484375 2.015625q0.484375 0.609375 1.46875 0.609375q0.734375 0 1.109375 -0.125l0 1.578125q-0.59375 0.21875 -1.5 0.21875zm1.3096313 -12.53125l1.765625 0l0 1.078125l3.984375 0l-0.078125 1.46875l-5.671875 0l0 -2.546875zm8.125 12.53125q-1.5625 0 -2.75 -0.515625l0 -1.640625q1.078125 0.484375 2.234375 0.484375q1.515625 0 2.15625 -0.625q0.640625 -0.640625 0.640625 -2.171875q0 -1.546875 -0.640625 -2.171875q-0.640625 -0.640625 -2.15625 -0.640625q-1.15625 0 -2.234375 0.484375l0 -1.640625q1.1875 -0.515625 2.75 -0.515625q2.171875 0 3.25 1.140625q1.078125 1.125 1.078125 3.34375q0 2.203125 -1.078125 3.34375q-1.078125 1.125 -3.25 1.125zm5.668518 -8.796875l1.984375 0l0.09375 0.84375q0.59375 -0.46875 1.359375 -0.734375q0.765625 -0.265625 1.640625 -0.265625q1.359375 0 2.125 0.828125q0.78125 0.828125 0.78125 2.28125l0 5.6875l-2.15625 0l0 -5.546875q0 -0.828125 -0.390625 -1.203125q-0.375 -0.375 -1.15625 -0.375q-0.59375 0 -1.1875 0.265625q-0.578125 0.25 -0.921875 0.640625l0 6.21875l-2.171875 0l0 -8.640625zm1.1067505 -2.65625l5.125 0l0 -1.296875l1.765625 0l0 2.765625l-7.0 0l0.109375 -1.46875zm5.125 -4.5707397l1.765625 0l0 2.234375l-1.765625 0l0 -2.234375zm3.34375 14.82074q0.375 -0.828125 1.0 -1.515625q0.625 -0.703125 1.671875 -1.625l0.421875 -0.375q0.75 -0.6875 1.0625 -1.015625q0.3125 -0.328125 0.4375 -0.671875q0.140625 -0.34375 0.140625 -0.875q0 -0.734375 -0.484375 -1.109375q-0.46875 -0.375 -1.40625 -0.375q-1.234375 0 -2.484375 0.5l0 -1.90625q0.59375 -0.203125 1.40625 -0.328125q0.8125 -0.125 1.5625 -0.125q1.765625 0 2.671875 0.875q0.921875 0.875 0.921875 2.421875q0 0.984375 -0.46875 1.71875q-0.453125 0.734375 -1.40625 1.546875l-0.25 0.21875q-0.71875 0.625 -1.1875 1.09375q-0.46875 0.453125 -0.796875 0.9375l4.203125 0l0 1.65625l-7.015625 0l0 -1.046875z" fill-rule="nonzero"/><path fill="#000000" fill-opacity="0.0" d="m477.11353 129.53867l0 25.417328" fill-rule="evenodd"/><path stroke="#000000" stroke-width="1.0" stroke-linejoin="round" stroke-linecap="butt" d="m477.11353 129.53867l0 19.417328" fill-rule="evenodd"/><path fill="#000000" stroke="#000000" stroke-width="1.0" stroke-linecap="butt" d="m475.4618 148.956l1.6517334 4.538101l1.6517334 -4.538101z" fill-rule="evenodd"/><path fill="#0f9d58" d="m374.54602 213.85039l13.62207 -54.48819l191.51178 0l-13.622009 54.48819z" fill-rule="evenodd"/><path fill="#ffffff" d="m412.0332 180.2163q0 -0.8125 0.265625 -1.34375q0.28125 -0.546875 0.96875 -0.75l-1.625 -0.4375l0 -2.0625q0.75 -0.625 1.84375 -1.03125q1.09375 -0.421875 2.40625 -0.421875q2.046875 0 3.078125 0.828125q1.03125 0.8125 1.03125 2.75l0 5.21875l-2.15625 0l0 -5.265625q0 -1.0 -0.46875 -1.421875q-0.46875 -0.4375 -1.59375 -0.4375q-0.6875 0 -1.296875 0.21875q-0.609375 0.203125 -0.984375 0.515625l0 0.234375l1.765625 0.46875l0 1.3125q-0.625 0.171875 -0.84375 0.53125q-0.21875 0.359375 -0.21875 1.109375l0 2.734375l-2.171875 0l0 -2.75zm6.9520264 -6.796875q-0.8125 0 -1.375 -0.515625q-0.5625 -0.53125 -0.5625 -1.328125q0 -0.796875 0.5625 -1.328125q0.5625 -0.53125 1.375 -0.53125q0.8125 0 1.375 0.53125q0.546875 0.53125 0.546875 1.328125q0 0.796875 -0.546875 1.328125q-0.5625 0.515625 -1.375 0.515625zm0 -1.140625q0.28125 0 0.5 -0.21875q0.203125 -0.21875 0.203125 -0.484375q0 -0.296875 -0.203125 -0.5q-0.21875 -0.21875 -0.5 -0.21875q-0.28125 0 -0.5 0.21875q-0.21875 0.203125 -0.21875 0.5q0 0.265625 0.21875 0.484375q0.21875 0.21875 0.5 0.21875zm5.984375 5.375q0 -0.921875 -0.359375 -1.359375q-0.359375 -0.453125 -1.328125 -0.453125q-0.5 0 -1.09375 0.125q-0.59375 0.109375 -1.078125 0.296875l0 -1.578125q0.5 -0.234375 1.203125 -0.375q0.703125 -0.140625 1.390625 -0.140625q1.8125 0 2.609375 0.765625q0.8125 0.765625 0.8125 2.421875l0 5.609375l-2.15625 0l0 -5.3125zm4.0575256 -3.328125l2.171875 0l0 2.625l2.140625 0q0.796875 0 1.125 -0.34375q0.328125 -0.359375 0.328125 -1.109375l0 -1.171875l2.15625 0l0 1.09375q0 1.796875 -1.234375 2.296875q0.640625 0.265625 0.90625 0.765625q0.265625 0.5 0.265625 1.265625l0 3.21875l-2.15625 0l0 -2.96875q0 -0.828125 -0.3125 -1.140625q-0.3125 -0.328125 -1.125 -0.328125l-2.09375 0l0 4.4375l-2.171875 0l0 -8.640625zm12.76001 8.796875q-1.390625 0 -2.203125 -0.84375q-0.796875 -0.84375 -0.796875 -2.34375l0 -5.609375l2.171875 0l0 5.484375q0 0.875 0.375 1.265625q0.390625 0.375 1.171875 0.375q0.59375 0 1.171875 -0.25q0.59375 -0.265625 0.9375 -0.65625l0 -6.21875l2.15625 0l0 8.640625l-1.984375 0l-0.09375 -0.84375q-1.25 1.0 -2.90625 1.0zm10.184906 0q-1.640625 0 -2.625 -1.0625q-0.984375 -1.0625 -0.984375 -3.234375q0 -2.234375 1.140625 -3.4375q1.15625 -1.21875 3.375 -1.21875q1.46875 0 2.453125 0.5q0.984375 0.484375 1.4375 1.3125q0.453125 0.8125 0.453125 1.765625l0 5.21875l-2.15625 0l0 -5.078125q0 -0.96875 -0.515625 -1.5q-0.5 -0.546875 -1.703125 -0.546875q-2.4375 0 -2.4375 2.984375q0 1.40625 0.484375 2.015625q0.484375 0.609375 1.46875 0.609375q0.734375 0 1.109375 -0.125l0 1.578125q-0.59375 0.21875 -1.5 0.21875zm14.895538 2.65625q-0.984375 0 -1.625 -0.25l0 -1.515625q0.453125 0.15625 0.96875 0.15625q0.640625 0 1.0 -0.296875q0.359375 -0.28125 0.75 -1.03125l-3.390625 -7.453125l2.25 0l2.234375 5.140625l2.203125 -5.140625l2.234375 0l-2.984375 7.046875q-0.703125 1.6875 -1.53125 2.515625q-0.8125 0.828125 -2.109375 0.828125zm16.505524 -2.65625q-0.921875 0 -1.75 -0.125q-0.8125 -0.125 -1.3125 -0.328125l0 -1.75q0.578125 0.234375 1.3125 0.390625q0.734375 0.140625 1.34375 0.140625q1.09375 0 1.53125 -0.171875q0.453125 -0.171875 0.453125 -0.65625q0 -0.296875 -0.171875 -0.484375q-0.15625 -0.203125 -0.46875 -0.328125q-0.3125 -0.140625 -0.984375 -0.359375l-0.6875 -0.234375q-1.296875 -0.4375 -1.90625 -0.96875q-0.59375 -0.546875 -0.59375 -1.5q0 -1.1875 0.921875 -1.875q0.921875 -0.703125 2.671875 -0.703125q0.71875 0 1.484375 0.109375q0.765625 0.109375 1.25 0.265625l0 1.734375q-0.484375 -0.203125 -1.171875 -0.3125q-0.671875 -0.125 -1.25 -0.125q-0.875 0 -1.375 0.1875q-0.484375 0.1875 -0.484375 0.671875q0 0.359375 0.328125 0.5625q0.34375 0.1875 1.25 0.46875q0.296875 0.078125 0.734375 0.25q0.9375 0.3125 1.46875 0.65625q0.53125 0.328125 0.78125 0.796875q0.25 0.46875 0.25 1.1875q0 1.234375 -0.953125 1.875q-0.953125 0.625 -2.671875 0.625zm-0.81137085 -12.53125l1.765625 0l0 1.078125l3.984375 0l-0.078125 1.46875l-5.671875 0l0 -2.546875zm10.0625 12.53125q-1.953125 0 -3.046875 -0.921875q-1.078125 -0.921875 -1.078125 -2.703125l0 -5.171875l2.171875 0l0 5.203125q0 0.96875 0.484375 1.453125q0.484375 0.46875 1.46875 0.46875q0.96875 0 1.453125 -0.46875q0.484375 -0.484375 0.484375 -1.453125l0 -5.203125l2.171875 0l0 5.171875q0 1.78125 -1.09375 2.703125q-1.078125 0.921875 -3.015625 0.921875zm6.0030212 -5.515625q0 -1.625 1.0 -2.53125q1.0 -0.90625 3.078125 -0.90625q2.09375 0 3.078125 0.90625q1.0 0.90625 1.0 2.53125l0 5.359375l-2.171875 0l0 -5.515625q0 -0.78125 -0.5 -1.1875q-0.5 -0.421875 -1.40625 -0.421875q-0.9375 0 -1.421875 0.421875q-0.484375 0.40625 -0.484375 1.1875l0 1.546875q0.671875 -0.515625 1.5 -0.515625l1.03125 0l0.078125 1.71875l-1.15625 0q-0.84375 0 -1.453125 0.46875l0 2.296875l-2.171875 0l0 -5.359375zm5.9855347 -7.109375l2.171875 0l0 2.640625l-2.171875 0l0 -2.640625zm7.125 7.15625q0 -0.921875 -0.359375 -1.359375q-0.359375 -0.453125 -1.328125 -0.453125q-0.5 0 -1.09375 0.125q-0.59375 0.109375 -1.078125 0.296875l0 -1.578125q0.5 -0.234375 1.203125 -0.375q0.703125 -0.140625 1.390625 -0.140625q1.8125 0 2.609375 0.765625q0.8125 0.765625 0.8125 2.421875l0 5.609375l-2.15625 0l0 -5.3125zm7.35437 5.46875q-1.640625 0 -2.625 -1.0625q-0.984375 -1.0625 -0.984375 -3.234375q0 -2.265625 0.78125 -3.453125q0.796875 -1.203125 2.203125 -1.203125q0.640625 0 1.046875 0.203125q0.40625 0.203125 0.671875 0.609375q0.3125 -0.375 0.875 -0.59375q0.578125 -0.21875 1.171875 -0.21875q1.09375 0 1.640625 0.671875q0.5625 0.671875 0.5625 1.828125l0 6.296875l-2.15625 0l0 -5.96875q0 -0.59375 -0.15625 -0.875q-0.15625 -0.28125 -0.578125 -0.28125q-0.296875 0 -0.53125 0.1875q-0.21875 0.1875 -0.3125 0.546875l-1.046875 0q-0.171875 -0.390625 -0.359375 -0.5625q-0.171875 -0.171875 -0.484375 -0.171875q-0.71875 0 -1.0 0.765625q-0.28125 0.765625 -0.28125 2.21875q0 1.40625 0.484375 2.015625q0.484375 0.609375 1.46875 0.609375q0.734375 0 1.109375 -0.125l0 1.578125q-0.59375 0.21875 -1.5 0.21875zm1.3096313 -12.53125l1.765625 0l0 1.078125l3.984375 0l-0.078125 1.46875l-5.671875 0l0 -2.546875zm8.125 12.53125q-1.5625 0 -2.75 -0.515625l0 -1.640625q1.078125 0.484375 2.234375 0.484375q1.515625 0 2.15625 -0.625q0.640625 -0.640625 0.640625 -2.171875q0 -1.546875 -0.640625 -2.171875q-0.640625 -0.640625 -2.15625 -0.640625q-1.15625 0 -2.234375 0.484375l0 -1.640625q1.1875 -0.515625 2.75 -0.515625q2.171875 0 3.25 1.140625q1.078125 1.125 1.078125 3.34375q0 2.203125 -1.078125 3.34375q-1.078125 1.125 -3.25 1.125zm5.668518 -8.796875l1.984375 0l0.09375 0.84375q0.59375 -0.46875 1.359375 -0.734375q0.765625 -0.265625 1.640625 -0.265625q1.359375 0 2.125 0.828125q0.78125 0.828125 0.78125 2.28125l0 5.6875l-2.15625 0l0 -5.546875q0 -0.828125 -0.390625 -1.203125q-0.375 -0.375 -1.15625 -0.375q-0.59375 0 -1.1875 0.265625q-0.578125 0.25 -0.921875 0.640625l0 6.21875l-2.171875 0l0 -8.640625zm1.1068115 -2.65625l5.125 0l0 -1.296875l1.765625 0l0 2.765625l-7.0 0l0.109375 -1.46875zm5.125 -4.5707397l1.765625 0l0 2.234375l-1.765625 0l0 -2.234375z" fill-rule="nonzero"/><path fill="#ffffff" d="m476.70657 193.60692l-1.671875 0.28125l0 -1.8125l3.84375 -0.578125l0 10.46875l-2.171875 0l0 -8.359375z" fill-rule="nonzero"/><path fill="#000000" fill-opacity="0.0" d="m477.11353 213.30244l0 25.417328" fill-rule="evenodd"/><path stroke="#000000" stroke-width="1.0" stroke-linejoin="round" stroke-linecap="butt" d="m477.11353 213.30246l0 19.417313" fill-rule="evenodd"/><path fill="#000000" stroke="#000000" stroke-width="1.0" stroke-linecap="butt" d="m475.4618 232.71977l1.6517334 4.538101l1.6517334 -4.538101z" fill-rule="evenodd"/><path fill="#0f9d58" d="m374.54602 297.61417l13.62207 -54.488174l191.51178 0l-13.622009 54.488174z" fill-rule="evenodd"/><path fill="#ffffff" d="m455.02103 276.38632q-0.921875 0 -1.75 -0.125q-0.8125 -0.125 -1.3125 -0.328125l0 -1.75q0.578125 0.234375 1.3125 0.390625q0.734375 0.140625 1.34375 0.140625q1.09375 0 1.53125 -0.171875q0.453125 -0.171875 0.453125 -0.65625q0 -0.296875 -0.171875 -0.484375q-0.15625 -0.203125 -0.46875 -0.328125q-0.3125 -0.140625 -0.984375 -0.359375l-0.6875 -0.234375q-1.296875 -0.4375 -1.90625 -0.96875q-0.59375 -0.546875 -0.59375 -1.5q0 -1.1875 0.921875 -1.875q0.921875 -0.703125 2.671875 -0.703125q0.71875 0 1.484375 0.109375q0.765625 0.109375 1.25 0.265625l0 1.734375q-0.484375 -0.203125 -1.171875 -0.3125q-0.671875 -0.125 -1.25 -0.125q-0.875 0 -1.375 0.1875q-0.484375 0.1875 -0.484375 0.671875q0 0.359375 0.328125 0.5625q0.34375 0.1875 1.25 0.46875q0.296875 0.078125 0.734375 0.25q0.9375 0.3125 1.46875 0.65625q0.53125 0.328125 0.78125 0.796875q0.25 0.46875 0.25 1.1875q0 1.234375 -0.953125 1.875q-0.953125 0.625 -2.671875 0.625zm-0.81134033 -12.53125l1.765625 0l0 1.078125l3.984375 0l-0.078125 1.46875l-5.671875 0l0 -2.546875zm10.0625 12.53125q-1.953125 0 -3.046875 -0.921875q-1.078125 -0.921875 -1.078125 -2.703125l0 -5.171875l2.171875 0l0 5.203125q0 0.96875 0.484375 1.453125q0.484375 0.46875 1.46875 0.46875q0.96875 0 1.453125 -0.46875q0.484375 -0.484375 0.484375 -1.453125l0 -5.203125l2.171875 0l0 5.171875q0 1.78125 -1.09375 2.703125q-1.078125 0.921875 -3.015625 0.921875zm6.0030212 -5.515625q0 -1.625 1.0 -2.53125q1.0 -0.90625 3.078125 -0.90625q2.09375 0 3.078125 0.90625q1.0 0.90625 1.0 2.53125l0 5.359375l-2.171875 0l0 -5.515625q0 -0.78125 -0.5 -1.1875q-0.5 -0.421875 -1.40625 -0.421875q-0.9375 0 -1.421875 0.421875q-0.484375 0.40625 -0.484375 1.1875l0 1.546875q0.671875 -0.515625 1.5 -0.515625l1.03125 0l0.078125 1.71875l-1.15625 0q-0.84375 0 -1.453125 0.46875l0 2.296875l-2.171875 0l0 -5.359375zm5.985504 -7.109375l2.171875 0l0 2.640625l-2.171875 0l0 -2.640625zm7.125 7.15625q0 -0.921875 -0.359375 -1.359375q-0.359375 -0.453125 -1.328125 -0.453125q-0.5 0 -1.09375 0.125q-0.59375 0.109375 -1.078125 0.296875l0 -1.578125q0.5 -0.234375 1.203125 -0.375q0.703125 -0.140625 1.390625 -0.140625q1.8125 0 2.609375 0.765625q0.8125 0.765625 0.8125 2.421875l0 5.609375l-2.15625 0l0 -5.3125zm13.192535 1.5l-3.6875 -6.484375l2.25 0l2.53125 4.65625l2.53125 -4.65625l2.234375 0l-3.6875 6.484375l0 3.8125l-2.171875 0l0 -3.8125z" fill-rule="nonzero"/><path fill="#000000" fill-opacity="0.0" d="m477.11353 297.06622l0 25.417328" fill-rule="evenodd"/><path stroke="#000000" stroke-width="1.0" stroke-linejoin="round" stroke-linecap="butt" d="m477.11353 297.06622l0 19.417328" fill-rule="evenodd"/><path fill="#000000" stroke="#000000" stroke-width="1.0" stroke-linecap="butt" d="m475.4618 316.48355l1.6517334 4.5381165l1.6517334 -4.5381165z" fill-rule="evenodd"/><path fill="#0f9d58" d="m374.54602 381.37796l13.62207 -54.48819l191.51178 0l-13.622009 54.48819z" fill-rule="evenodd"/><path fill="#ffffff" d="m455.70905 360.15012q-0.921875 0 -1.75 -0.125q-0.8125 -0.125 -1.3125 -0.328125l0 -1.75q0.578125 0.234375 1.3125 0.390625q0.734375 0.140625 1.34375 0.140625q1.09375 0 1.53125 -0.171875q0.453125 -0.171875 0.453125 -0.65625q0 -0.296875 -0.171875 -0.484375q-0.15625 -0.203125 -0.46875 -0.328125q-0.3125 -0.140625 -0.984375 -0.359375l-0.6875 -0.234375q-1.296875 -0.4375 -1.90625 -0.96875q-0.59375 -0.546875 -0.59375 -1.5q0 -1.1875 0.921875 -1.875q0.921875 -0.703125 2.671875 -0.703125q0.71875 0 1.484375 0.109375q0.765625 0.109375 1.25 0.265625l0 1.734375q-0.484375 -0.203125 -1.171875 -0.3125q-0.671875 -0.125 -1.25 -0.125q-0.875 0 -1.375 0.1875q-0.484375 0.1875 -0.484375 0.671875q0 0.359375 0.328125 0.5625q0.34375 0.1875 1.25 0.46875q0.296875 0.078125 0.734375 0.25q0.9375 0.3125 1.46875 0.65625q0.53125 0.328125 0.78125 0.796875q0.25 0.46875 0.25 1.1875q0 1.234375 -0.953125 1.875q-0.953125 0.625 -2.671875 0.625zm-0.81137085 -12.53125l1.765625 0l0 1.078125l3.984375 0l-0.078125 1.46875l-5.671875 0l0 -2.546875zm10.0625 12.53125q-1.953125 0 -3.046875 -0.921875q-1.078125 -0.921875 -1.078125 -2.703125l0 -5.171875l2.171875 0l0 5.203125q0 0.96875 0.484375 1.453125q0.484375 0.46875 1.46875 0.46875q0.96875 0 1.453125 -0.46875q0.484375 -0.484375 0.484375 -1.453125l0 -5.203125l2.171875 0l0 5.171875q0 1.78125 -1.09375 2.703125q-1.078125 0.921875 -3.015625 0.921875zm6.0030212 -5.515625q0 -1.625 1.0 -2.53125q1.0 -0.90625 3.078125 -0.90625q2.09375 0 3.078125 0.90625q1.0 0.90625 1.0 2.53125l0 5.359375l-2.171875 0l0 -5.515625q0 -0.78125 -0.5 -1.1875q-0.5 -0.421875 -1.40625 -0.421875q-0.9375 0 -1.421875 0.421875q-0.484375 0.40625 -0.484375 1.1875l0 1.546875q0.671875 -0.515625 1.5 -0.515625l1.03125 0l0.078125 1.71875l-1.15625 0q-0.84375 0 -1.453125 0.46875l0 2.296875l-2.171875 0l0 -5.359375zm5.9855347 -7.109375l2.171875 0l0 2.640625l-2.171875 0l0 -2.640625zm7.125 7.15625q0 -0.921875 -0.359375 -1.359375q-0.359375 -0.453125 -1.328125 -0.453125q-0.5 0 -1.09375 0.125q-0.59375 0.109375 -1.078125 0.296875l0 -1.578125q0.5 -0.234375 1.203125 -0.375q0.703125 -0.140625 1.390625 -0.140625q1.8125 0 2.609375 0.765625q0.8125 0.765625 0.8125 2.421875l0 5.609375l-2.15625 0l0 -5.3125zm12.411255 1.453125l-2.796875 -3.71875l2.34375 0l1.625 2.203125l1.625 -2.203125l2.34375 0l-2.78125 3.71875l2.890625 3.859375l-2.34375 0l-1.734375 -2.3125l-1.734375 2.3125l-2.34375 0l2.90625 -3.859375z" fill-rule="nonzero"/><path fill="#4a86e8" d="m419.32678 494.41733l127.1181 0l0 58.992096l-127.1181 0z" fill-rule="evenodd"/><path fill="#ffffff" d="m438.02875 515.13275l-3.609375 -5.15625l2.015625 0l2.625 3.8125l2.625 -3.8125l2.03125 0l-3.609375 5.15625l3.671875 5.140625l-2.046875 0l-2.671875 -3.78125l-2.671875 3.78125l-2.046875 0l3.6875 -5.140625zm15.470764 1.515625l-2.359375 0l0 -1.359375l2.359375 0l0 -2.34375l1.390625 0l0 2.34375l2.34375 0l0 1.359375l-2.34375 0l0 2.25l-1.390625 0l0 -2.25zm14.784912 -0.203125l-3.703125 -6.46875l1.8125 0l2.75 5.0l2.75 -5.0l1.8125 0l-3.703125 6.46875l0 3.828125l-1.71875 0l0 -3.828125zm14.744141 3.828125q-1.671875 0 -1.671875 -1.65625l0 -6.984375l1.71875 0l0 6.546875q0 0.359375 0.171875 0.546875q0.171875 0.171875 0.53125 0.171875l0.734375 0l0 1.375l-1.484375 0zm3.3495178 -3.125q0 -1.59375 1.265625 -1.984375l-1.734375 -0.421875l0 -1.796875q0.71875 -0.640625 1.78125 -1.046875q1.0625 -0.421875 2.359375 -0.421875q1.96875 0 2.953125 0.8125q1.0 0.8125 1.0 2.625l0 5.359375l-1.734375 0l0 -5.40625q0 -1.109375 -0.515625 -1.546875q-0.515625 -0.4375 -1.765625 -0.4375q-0.78125 0 -1.484375 0.234375q-0.6875 0.21875 -1.09375 0.578125l0 0.296875l1.828125 0.453125l0 1.15625q-0.625 0.15625 -0.890625 0.515625q-0.25 0.34375 -0.25 1.046875l0 3.109375l-1.71875 0l0 -3.125zm2.933014 -6.8125q-0.9375 0 -1.46875 -0.46875q-0.546875 -0.484375 -0.546875 -1.375q0 -0.890625 0.5625 -1.40625q0.5625 -0.53125 1.578125 -0.53125l3.9375 0l-0.09375 1.03125l-3.6875 0q-0.546875 0 -0.8125 0.21875q-0.265625 0.21875 -0.265625 0.6875q0 0.859375 0.921875 0.859375q0.84375 0 0.84375 -0.671875l0 -0.34375l1.0625 0l0 0.34375q0 0.328125 0.1875 0.484375q0.171875 0.140625 0.5625 0.140625l1.0 0l0 1.0l-1.125 0q-0.40625 0 -0.71875 -0.109375q-0.3125 -0.125 -0.4375 -0.390625q-0.171875 0.265625 -0.59375 0.40625q-0.4375 0.125 -0.90625 0.125zm10.671875 10.09375q-1.875 0 -2.90625 -0.875q-1.03125 -0.890625 -1.03125 -2.640625l0 -5.28125l1.734375 0l0 5.34375q0 1.0625 0.546875 1.5625q0.5625 0.5 1.65625 0.5q1.109375 0 1.671875 -0.5q0.5625 -0.5 0.5625 -1.5625l0 -5.34375l1.71875 0l0 5.28125q0 1.75 -1.03125 2.640625q-1.015625 0.875 -2.921875 0.875zm7.9203796 -0.15625q-1.671875 0 -1.671875 -1.65625l0 -5.53125q0 -1.71875 1.21875 -2.546875l-2.515625 0l0 -1.375l4.625 0l0 1.3125q-0.859375 0.34375 -1.234375 1.03125q-0.375 0.671875 -0.375 1.84375l0 4.828125q0 0.4375 0.140625 0.578125q0.140625 0.140625 0.578125 0.140625l0.734375 0l0 1.375l-1.5 0zm5.0347595 0.15625q-1.5 0 -2.59375 -0.46875l0 -1.390625q1.078125 0.46875 2.171875 0.46875q1.109375 0 1.734375 -0.296875q0.640625 -0.3125 0.90625 -0.984375q0.28125 -0.671875 0.28125 -1.796875q0 -1.671875 -0.6875 -2.375q-0.671875 -0.703125 -2.25 -0.703125q-1.109375 0 -2.15625 0.46875l0 -1.390625q1.140625 -0.484375 2.546875 -0.484375q2.125 0 3.171875 1.140625q1.0625 1.125 1.0625 3.34375q0 2.203125 -1.03125 3.34375q-1.015625 1.125 -3.15625 1.125zm0.10827637 -11.578125l-1.265625 0l0 -1.203125l2.46875 0l0 1.453125l3.453125 0l-0.0625 1.21875l-4.59375 0l0 -1.46875zm7.171875 11.421875q-1.6875 0 -1.6875 -1.65625l0 -3.703125q0 -0.84375 0.328125 -1.40625q0.328125 -0.5625 0.90625 -1.15625q0.359375 -0.359375 0.5 -0.578125q0.15625 -0.21875 0.15625 -0.46875q0 -0.453125 -0.25 -0.625q-0.25 -0.171875 -0.8125 -0.171875q-0.859375 0 -1.734375 0.484375l0 -1.28125q0.46875 -0.28125 1.09375 -0.4375q0.625 -0.15625 1.234375 -0.15625q1.125 0 1.6875 0.484375q0.578125 0.484375 0.578125 1.359375q0 0.546875 -0.234375 0.953125q-0.234375 0.390625 -0.703125 0.890625q-0.5 0.609375 -0.765625 1.046875q-0.25 0.4375 -0.25 1.109375l0 3.21875q0 0.4375 0.125 0.578125q0.140625 0.140625 0.578125 0.140625l0.734375 0l0 1.375l-1.484375 0zm6.1727295 0.15625q-1.390625 0 -2.171875 -0.8125q-0.765625 -0.828125 -0.765625 -2.3125l0 -5.671875l1.734375 0l0 5.578125q0 0.96875 0.421875 1.40625q0.421875 0.421875 1.359375 0.421875q0.6875 0 1.328125 -0.28125q0.640625 -0.296875 1.0625 -0.75l0 -6.375l1.734375 0l0 8.640625l-1.578125 0l-0.09375 -0.9375q-1.265625 1.09375 -3.03125 1.09375z" fill-rule="nonzero"/><path fill="#ffffff" d="m471.1228 539.4296q-2.0 0 -3.21875 -0.515625l0 -1.53125q1.5 0.578125 3.0625 0.578125q1.296875 0 1.875 -0.296875q0.59375 -0.3125 0.59375 -1.140625q0 -0.53125 -0.25 -0.84375q-0.25 -0.3125 -0.8125 -0.53125q-0.5625 -0.234375 -1.671875 -0.515625q-1.671875 -0.4375 -2.34375 -1.09375q-0.671875 -0.671875 -0.671875 -1.828125q0 -1.375 1.0 -2.140625q1.015625 -0.765625 2.953125 -0.765625q0.84375 0 1.640625 0.125q0.796875 0.125 1.28125 0.296875l0 1.53125q-1.203125 -0.453125 -2.6875 -0.453125q-1.21875 0 -1.828125 0.3125q-0.59375 0.3125 -0.59375 1.09375q0 0.453125 0.21875 0.734375q0.21875 0.28125 0.734375 0.5q0.53125 0.21875 1.5625 0.46875q1.8125 0.46875 2.515625 1.203125q0.703125 0.734375 0.703125 1.90625q0 1.375 -1.03125 2.140625q-1.03125 0.765625 -3.03125 0.765625zm10.161255 0q-2.140625 0 -3.3125 -1.015625q-1.171875 -1.03125 -1.171875 -2.96875l0 -6.46875l1.75 0l0 6.40625q0 1.28125 0.703125 1.9375q0.703125 0.640625 2.03125 0.640625q1.3125 0 2.015625 -0.640625q0.703125 -0.65625 0.703125 -1.9375l0 -6.40625l1.734375 0l0 6.46875q0 1.9375 -1.171875 2.96875q-1.15625 1.015625 -3.28125 1.015625zm6.393402 -10.453125l1.78125 0l3.265625 6.671875l3.25 -6.671875l1.796875 0l0 10.296875l-1.734375 0l0 -7.46875l-2.78125 5.6875l-1.0625 0l-2.796875 -5.6875l0 7.46875l-1.71875 0l0 -10.296875z" fill-rule="nonzero"/><path fill="#000000" fill-opacity="0.0" d="m477.11353 384.2644l0 25.417297" fill-rule="evenodd"/><path stroke="#000000" stroke-width="1.0" stroke-linejoin="round" stroke-linecap="butt" d="m477.11353 384.2644l0 19.417328" fill-rule="evenodd"/><path fill="#000000" stroke="#000000" stroke-width="1.0" stroke-linecap="butt" d="m475.4618 403.68173l1.6517334 4.538086l1.6517334 -4.538086z" fill-rule="evenodd"/><path fill="#000000" fill-opacity="0.0" d="m477.11353 471.55966l0 25.417328" fill-rule="evenodd"/><path stroke="#000000" stroke-width="1.0" stroke-linejoin="round" stroke-linecap="butt" d="m477.11353 471.55966l0 19.417328" fill-rule="evenodd"/><path fill="#000000" stroke="#000000" stroke-width="1.0" stroke-linecap="butt" d="m475.4618 490.977l1.6517334 4.538086l1.6517334 -4.538086z" fill-rule="evenodd"/><path fill="#000000" fill-opacity="0.0" d="m492.4652 582.36804l0 25.417358" fill-rule="evenodd"/><path stroke="#000000" stroke-width="1.0" stroke-linejoin="round" stroke-linecap="butt" d="m492.4652 582.36804l0 19.417358" fill-rule="evenodd"/><path fill="#000000" stroke="#000000" stroke-width="1.0" stroke-linecap="butt" d="m490.81348 601.7854l1.6517334 4.538086l1.6517334 -4.538086z" fill-rule="evenodd"/><path fill="#0f9d58" d="m374.54602 644.3478l13.62207 -54.48822l191.51178 0l-13.622009 54.48822z" fill-rule="evenodd"/><path fill="#ffffff" d="m433.6046 622.9637q-1.015625 0 -1.453125 -0.421875q-0.4375 -0.421875 -0.4375 -1.375l0 -6.84375l2.171875 0l0 6.28125q0 0.671875 0.65625 0.671875l0.53125 0l0 1.6875l-1.46875 0zm4.09375 0q-1.015625 0 -1.453125 -0.421875q-0.421875 -0.421875 -0.421875 -1.375l0 -6.84375l2.15625 0l0 6.28125q0 0.671875 0.65625 0.671875l0.546875 0l0 1.6875l-1.484375 0zm5.6951294 0.15625q-1.34375 0 -2.171875 -0.65625q-0.828125 -0.65625 -0.828125 -2.0625q0 -1.296875 0.875 -1.984375q0.890625 -0.703125 2.53125 -0.703125l2.453125 0l0 -0.40625q0 -0.8125 -0.453125 -1.140625q-0.453125 -0.328125 -1.578125 -0.328125q-1.515625 0 -2.875 0.4375l0 -1.609375q0.6875 -0.234375 1.546875 -0.359375q0.875 -0.140625 1.671875 -0.140625q0.90625 0 1.546875 0.15625l3.0 0l-0.109375 1.65625l-0.984375 0q0.390625 0.578125 0.390625 1.546875l0 5.4375l-2.15625 0l0 -3.65625l-2.328125 0q-0.734375 0 -1.109375 0.25q-0.375 0.25 -0.375 0.84375q0 0.59375 0.34375 0.828125q0.34375 0.21875 1.1875 0.21875q0.734375 0 1.109375 -0.125l0 1.578125q-0.71875 0.21875 -1.6875 0.21875zm10.514526 0q-1.640625 0 -2.625 -1.0625q-0.984375 -1.0625 -0.984375 -3.234375q0 -2.234375 1.140625 -3.4375q1.15625 -1.21875 3.375 -1.21875q1.46875 0 2.453125 0.5q0.984375 0.484375 1.4375 1.3125q0.453125 0.8125 0.453125 1.765625l0 5.21875l-2.15625 0l0 -5.078125q0 -0.96875 -0.515625 -1.5q-0.5 -0.546875 -1.703125 -0.546875q-2.4375 0 -2.4375 2.984375q0 1.40625 0.484375 2.015625q0.484375 0.609375 1.46875 0.609375q0.734375 0 1.109375 -0.125l0 1.578125q-0.59375 0.21875 -1.5 0.21875zm10.401154 0q-1.015625 0 -1.765625 -0.234375l-2.4375 -5.921875l2.09375 0l1.90625 4.625q1.1875 0 1.71875 -0.796875q0.546875 -0.796875 0.546875 -2.421875q0 -0.96875 -0.1875 -1.5q-0.171875 -0.546875 -0.59375 -0.78125q-0.40625 -0.234375 -1.15625 -0.234375l-0.65625 0l0 -1.53125l0.96875 0q1.890625 0 2.78125 1.0q0.890625 0.984375 0.890625 3.046875q0 2.4375 -1.109375 3.59375q-1.09375 1.15625 -3.0 1.15625zm5.1820374 -5.515625q0 -1.625 1.0 -2.53125q1.0 -0.90625 3.078125 -0.90625q2.09375 0 3.078125 0.90625q1.0 0.90625 1.0 2.53125l0 5.359375l-2.171875 0l0 -5.515625q0 -0.78125 -0.5 -1.1875q-0.5 -0.421875 -1.40625 -0.421875q-0.9375 0 -1.421875 0.421875q-0.484375 0.40625 -0.484375 1.1875l0 1.546875q0.671875 -0.515625 1.5 -0.515625l1.03125 0l0.078125 1.71875l-1.15625 0q-0.84375 0 -1.453125 0.46875l0 2.296875l-2.171875 0l0 -5.359375zm5.985504 -7.109375l2.171875 0l0 2.640625l-2.171875 0l0 -2.640625zm7.125 7.15625q0 -0.921875 -0.359375 -1.359375q-0.359375 -0.453125 -1.328125 -0.453125q-0.5 0 -1.09375 0.125q-0.59375 0.109375 -1.078125 0.296875l0 -1.578125q0.5 -0.234375 1.203125 -0.375q0.703125 -0.140625 1.390625 -0.140625q1.8125 0 2.609375 0.765625q0.8125 0.765625 0.8125 2.421875l0 5.609375l-2.15625 0l0 -5.3125zm13.02066 5.46875q-2.0625 0 -3.328125 -0.5625l0 -1.890625q0.71875 0.28125 1.53125 0.46875q0.828125 0.171875 1.59375 0.171875q1.203125 0 1.6875 -0.21875q0.484375 -0.234375 0.484375 -0.9375q0 -0.46875 -0.234375 -0.734375q-0.21875 -0.28125 -0.734375 -0.46875q-0.5 -0.203125 -1.59375 -0.515625q-1.609375 -0.4375 -2.265625 -1.109375q-0.65625 -0.671875 -0.65625 -1.859375q0 -1.421875 1.03125 -2.1875q1.046875 -0.78125 3.03125 -0.78125q0.890625 0 1.703125 0.125q0.8125 0.125 1.328125 0.3125l0 1.90625q-1.3125 -0.5 -2.75 -0.5q-1.078125 0 -1.625 0.25q-0.53125 0.234375 -0.53125 0.875q0 0.390625 0.203125 0.640625q0.203125 0.234375 0.671875 0.421875q0.46875 0.1875 1.46875 0.4375q1.78125 0.484375 2.46875 1.25q0.6875 0.75 0.6875 1.9375q0 1.390625 -1.0625 2.1875q-1.046875 0.78125 -3.109375 0.78125zm10.20813 0q-2.15625 0 -3.390625 -1.03125q-1.21875 -1.046875 -1.21875 -3.0l0 -6.421875l2.15625 0l0 6.265625q0 1.171875 0.625 1.765625q0.640625 0.578125 1.828125 0.578125q1.1875 0 1.8125 -0.578125q0.625 -0.59375 0.625 -1.765625l0 -6.265625l2.15625 0l0 6.421875q0 1.9375 -1.21875 2.984375q-1.21875 1.046875 -3.375 1.046875zm6.3327637 -10.453125l2.1875 0l3.015625 6.1875l3.03125 -6.1875l2.15625 0l0 10.296875l-2.15625 0l0 -6.703125l-2.40625 4.921875l-1.25 0l-2.40625 -4.921875l0 6.703125l-2.171875 0l0 -10.296875z" fill-rule="nonzero"/><path fill="#000000" fill-opacity="0.0" d="m480.00067 558.9271l0 25.417297" fill-rule="evenodd"/><path stroke="#000000" stroke-width="1.0" stroke-linejoin="round" stroke-linecap="butt" d="m480.00067 558.9271l0 19.417297" fill-rule="evenodd"/><path fill="#000000" stroke="#000000" stroke-width="1.0" stroke-linecap="butt" d="m478.34894 578.3444l1.6517334 4.538147l1.6517029 -4.538147z" fill-rule="evenodd"/></g></svg>