<svg version="1.1" viewBox="0.0 0.0 960.0 720.0" fill="none" stroke="none" stroke-linecap="square" stroke-miterlimit="10" xmlns:xlink="http://www.w3.org/1999/xlink" xmlns="http://www.w3.org/2000/svg"><clipPath id="p.0"><path d="m0 0l960.0 0l0 720.0l-960.0 0l0 -720.0z" clip-rule="nonzero"/></clipPath><g clip-path="url(#p.0)"><path fill="#000000" fill-opacity="0.0" d="m0 0l960.0 0l0 720.0l-960.0 0z" fill-rule="evenodd"/><path fill="#ff0000" d="m393.8134 53.824146l102.20776 0l0 0c13.389496 0 24.243866 10.976566 24.243866 24.51685c0 13.540283 -10.85437 24.516853 -24.243866 24.516853l-102.20776 0l0 0c-13.389496 0 -24.243835 -10.97657 -24.243835 -24.516853c0 -13.540283 10.85434 -24.51685 24.243835 -24.51685z" fill-rule="evenodd"/><path stroke="#000000" stroke-width="1.0" stroke-linejoin="round" stroke-linecap="butt" d="m393.8134 53.824146l102.20776 0l0 0c13.389496 0 24.243866 10.976566 24.243866 24.51685c0 13.540283 -10.85437 24.516853 -24.243866 24.516853l-102.20776 0l0 0c-13.389496 0 -24.243835 -10.97657 -24.243835 -24.516853c0 -13.540283 10.85434 -24.51685 24.243835 -24.51685z" fill-rule="evenodd"/><path fill="#000000" d="m422.79865 80.96412l1.65625 -0.140625q0.125 1.0 0.546875 1.640625q0.4375 0.640625 1.34375 1.046875q0.921875 0.390625 2.0625 0.390625q1.0 0 1.78125 -0.296875q0.78125 -0.296875 1.15625 -0.8125q0.375 -0.53125 0.375 -1.15625q0 -0.625 -0.375 -1.09375q-0.359375 -0.46875 -1.1875 -0.796875q-0.546875 -0.203125 -2.390625 -0.640625q-1.828125 -0.453125 -2.5625 -0.84375q-0.96875 -0.5 -1.4375 -1.234375q-0.46875 -0.75 -0.46875 -1.671875q0 -1.0 0.578125 -1.875q0.578125 -0.890625 1.671875 -1.34375q1.109375 -0.453125 2.453125 -0.453125q1.484375 0 2.609375 0.484375q1.140625 0.46875 1.75 1.40625q0.609375 0.921875 0.65625 2.09375l-1.6875 0.125q-0.140625 -1.265625 -0.9375 -1.90625q-0.78125 -0.65625 -2.3125 -0.65625q-1.609375 0 -2.34375 0.59375q-0.734375 0.59375 -0.734375 1.421875q0 0.71875 0.53125 1.171875q0.5 0.46875 2.65625 0.96875q2.15625 0.484375 2.953125 0.84375q1.171875 0.53125 1.71875 1.359375q0.5625 0.828125 0.5625 1.90625q0 1.0625 -0.609375 2.015625q-0.609375 0.9375 -1.75 1.46875q-1.140625 0.515625 -2.578125 0.515625q-1.8125 0 -3.046875 -0.53125q-1.21875 -0.53125 -1.921875 -1.59375q-0.6875 -1.0625 -0.71875 -2.40625zm16.412323 2.828125l0.234375 1.453125q-0.6875 0.140625 -1.234375 0.140625q-0.890625 0 -1.390625 -0.28125q-0.484375 -0.28125 -0.6875 -0.734375q-0.203125 -0.46875 -0.203125 -1.9375l0 -5.578125l-1.203125 0l0 -1.265625l1.203125 0l0 -2.390625l1.625 -0.984375l0 3.375l1.65625 0l0 1.265625l-1.65625 0l0 5.671875q0 0.6875 0.078125 0.890625q0.09375 0.203125 0.28125 0.328125q0.203125 0.109375 0.578125 0.109375q0.265625 0 0.71875 -0.0625zm7.917694 0.28125q-0.921875 0.765625 -1.765625 1.09375q-0.828125 0.3125 -1.796875 0.3125q-1.59375 0 -2.453125 -0.78125q-0.859375 -0.78125 -0.859375 -1.984375q0 -0.71875 0.328125 -1.296875q0.328125 -0.59375 0.84375 -0.9375q0.53125 -0.359375 1.1875 -0.546875q0.46875 -0.125 1.453125 -0.25q1.984375 -0.234375 2.921875 -0.5625q0.015625 -0.34375 0.015625 -0.421875q0 -1.0 -0.46875 -1.421875q-0.625 -0.546875 -1.875 -0.546875q-1.15625 0 -1.703125 0.40625q-0.546875 0.40625 -0.8125 1.421875l-1.609375 -0.21875q0.21875 -1.015625 0.71875 -1.640625q0.5 -0.640625 1.453125 -0.984375q0.953125 -0.34375 2.1875 -0.34375q1.25 0 2.015625 0.296875q0.78125 0.28125 1.140625 0.734375q0.375 0.4375 0.515625 1.109375q0.078125 0.421875 0.078125 1.515625l0 2.1875q0 2.28125 0.109375 2.890625q0.109375 0.59375 0.40625 1.15625l-1.703125 0q-0.265625 -0.515625 -0.328125 -1.1875zm-0.140625 -3.671875q-0.890625 0.375 -2.671875 0.625q-1.015625 0.140625 -1.4375 0.328125q-0.421875 0.1875 -0.65625 0.53125q-0.21875 0.34375 -0.21875 0.78125q0 0.65625 0.5 1.09375q0.5 0.4375 1.453125 0.4375q0.9375 0 1.671875 -0.40625q0.75 -0.421875 1.09375 -1.140625q0.265625 -0.5625 0.265625 -1.640625l0 -0.609375zm4.188202 4.859375l0 -9.671875l1.46875 0l0 1.46875q0.5625 -1.03125 1.03125 -1.359375q0.484375 -0.328125 1.0625 -0.328125q0.828125 0 1.6875 0.53125l-0.5625 1.515625q-0.609375 -0.359375 -1.203125 -0.359375q-0.546875 0 -0.96875 0.328125q-0.421875 0.328125 -0.609375 0.890625q-0.28125 0.875 -0.28125 1.921875l0 5.0625l-1.625 0zm9.806427 -1.46875l0.234375 1.453125q-0.6875 0.140625 -1.234375 0.140625q-0.890625 0 -1.390625 -0.28125q-0.484375 -0.28125 -0.6875 -0.734375q-0.203125 -0.46875 -0.203125 -1.9375l0 -5.578125l-1.203125 0l0 -1.265625l1.203125 0l0 -2.390625l1.625 -0.984375l0 3.375l1.65625 0l0 1.265625l-1.65625 0l0 5.671875q0 0.6875 0.078125 0.890625q0.09375 0.203125 0.28125 0.328125q0.203125 0.109375 0.578125 0.109375q0.265625 0 0.71875 -0.0625z" fill-rule="nonzero"/><path fill="#000000" fill-opacity="0.0" d="m444.91602 102.85696l0 35.874016" fill-rule="evenodd"/><path stroke="#000000" stroke-width="1.0" stroke-linejoin="round" stroke-linecap="butt" d="m444.91602 102.85696l0 29.874016" fill-rule="evenodd"/><path fill="#000000" stroke="#000000" stroke-width="1.0" stroke-linecap="butt" d="m443.26428 132.73097l1.6517334 4.538101l1.6517334 -4.538101z" fill-rule="evenodd"/><path fill="#00ff00" d="m340.8622 206.90552l41.621002 -68.17323l166.48395 0l-41.62097 68.17323z" fill-rule="evenodd"/><path stroke="#000000" stroke-width="1.0" stroke-linejoin="round" stroke-linecap="butt" d="m340.8622 206.90552l41.621002 -68.17323l166.48395 0l-41.62097 68.17323z" fill-rule="evenodd"/><path fill="#000000" d="m399.63947 159.55139q-0.5625 0.171875 -1.71875 0.171875l-2.5625 -0.109375q-0.765625 0 -1.171875 0.40625q-0.390625 0.390625 -0.390625 0.90625q0 0.09375 0.015625 0.171875q0.953125 -0.1875 2.046875 -0.1875q1.875 0 2.71875 0.640625q0.84375 0.625 0.84375 2.578125l0 2.15625q0 1.21875 -0.53125 1.890625q-0.53125 0.65625 -1.53125 0.65625q-0.65625 0 -1.140625 -0.46875q-0.46875 -0.484375 -0.46875 -1.140625q0 -0.65625 0.46875 -1.125q0.484375 -0.46875 1.140625 -0.46875q0.28125 0 0.5625 0.078125l0 -1.53125q0 -0.96875 -0.40625 -1.46875q-0.40625 -0.515625 -1.65625 -0.515625q-1.734375 0 -3.296875 0.4375q-0.0625 -0.5625 -0.0625 -1.109375q0 -3.1875 2.84375 -3.1875l2.5625 0.109375q0.96875 0 1.5625 -0.15625l0.171875 1.265625zm-2.28125 8.234375q0.234375 0 0.390625 -0.15625q0.171875 -0.171875 0.171875 -0.40625q0 -0.21875 -0.171875 -0.375q-0.15625 -0.171875 -0.390625 -0.171875q-0.21875 0 -0.390625 0.171875q-0.171875 0.15625 -0.171875 0.375q0 0.234375 0.171875 0.40625q0.171875 0.15625 0.390625 0.15625zm3.658844 -14.015625q-0.34375 1.53125 -1.40625 2.359375q-1.0625 0.828125 -2.640625 0.828125q-1.28125 0 -2.109375 -0.59375q-0.828125 -0.609375 -0.828125 -1.515625q0 -0.609375 0.4375 -1.046875q0.421875 -0.4375 1.046875 -0.4375q0.59375 0 1.03125 0.4375q0.4375 0.4375 0.4375 1.03125q0 0.671875 -0.46875 1.078125q0.125 0.0625 0.453125 0.0625q2.5 0 3.03125 -2.203125l1.015625 0zm-5.5 1.546875q0.1875 0 0.328125 -0.140625q0.140625 -0.140625 0.140625 -0.34375q0 -0.1875 -0.140625 -0.328125q-0.140625 -0.15625 -0.328125 -0.15625q-0.203125 0 -0.34375 0.15625q-0.140625 0.140625 -0.140625 0.328125q0 0.203125 0.140625 0.34375q0.140625 0.140625 0.34375 0.140625zm15.265625 11.53125q0 1.1875 -0.40625 1.546875q-0.390625 0.34375 -1.734375 0.34375l-6.296875 0l0 -1.28125l1.203125 0l0 -6.015625q-0.28125 0.09375 -0.546875 0.09375q-0.65625 0 -1.140625 -0.46875q-0.46875 -0.484375 -0.46875 -1.140625q0 -0.65625 0.46875 -1.125q0.46875 -0.46875 1.140625 -0.46875q0.96875 0 1.515625 0.671875q0.546875 0.671875 0.546875 1.875l0 6.578125l3.703125 0q0.5 0 0.5 -0.546875l0 -8.5l1.515625 0l0 8.4375zm-7.78125 -6.359375q0.21875 0 0.375 -0.15625q0.171875 -0.171875 0.171875 -0.40625q0 -0.21875 -0.171875 -0.375q-0.15625 -0.171875 -0.375 -0.171875q-0.234375 0 -0.40625 0.171875q-0.15625 0.15625 -0.15625 0.375q0 0.234375 0.15625 0.40625q0.171875 0.15625 0.40625 0.15625zm19.060059 8.25l-1.515625 0l0 -6.9375q0 -0.875 -0.84375 -1.46875q-0.828125 -0.609375 -2.03125 -0.609375q-1.265625 0 -2.15625 0.671875q-0.890625 0.671875 -0.890625 1.71875q0 0.875 0.328125 2.03125q0.109375 0.375 0.15625 0.53125q0.265625 -1.40625 0.921875 -2.1875q0.65625 -0.796875 1.53125 -0.796875q0.65625 0 1.125 0.46875q0.484375 0.46875 0.484375 1.125q0 0.65625 -0.484375 1.140625q-0.46875 0.46875 -1.125 0.46875q-0.71875 0 -1.171875 -0.5625q-0.828125 0.75 -0.828125 2.078125l0 2.328125l-1.5 0l0 -1.515625q0 -0.765625 -0.46875 -2.609375q-0.453125 -1.828125 -0.453125 -2.578125q0 -1.46875 1.203125 -2.578125q1.203125 -1.125 3.296875 -1.125q2.015625 0 3.21875 0.984375q1.203125 0.96875 1.203125 2.4375l0 6.984375zm-4.5 -4.890625q0.21875 0 0.390625 -0.171875q0.171875 -0.171875 0.171875 -0.390625q0 -0.21875 -0.171875 -0.375q-0.171875 -0.171875 -0.390625 -0.171875q-0.21875 0 -0.390625 0.171875q-0.171875 0.15625 -0.171875 0.375q0 0.21875 0.171875 0.390625q0.171875 0.171875 0.390625 0.171875zm3.919464 -6.125l-1.078125 0l0 -3.21875l1.078125 0l0 3.21875zm9.890625 11.015625l-1.515625 0l0 -6.65625q0 -1.0625 -0.546875 -1.703125q-0.546875 -0.65625 -1.5625 -0.65625q-1.78125 0 -2.28125 1.796875l-1.46875 -0.203125q0.703125 -2.984375 4.0 -2.984375q3.375 0 3.375 3.6875l0 6.71875zm11.286499 0l-1.515625 0l0 -6.9375q0 -1.25 -1.328125 -2.03125l-1.546875 1.328125l-1.546875 -1.3125q-1.5 0.65625 -1.5 2.421875q0 0.53125 0.421875 2.109375q0.421875 1.65625 0.421875 2.25q0.125 -0.171875 0.640625 -0.671875q0.734375 -0.71875 0.90625 -1.0625q-0.515625 -0.171875 -0.828125 -0.59375q-0.3125 -0.421875 -0.3125 -0.953125q0 -0.65625 0.46875 -1.125q0.46875 -0.46875 1.125 -0.46875q0.65625 0 1.125 0.46875q0.484375 0.46875 0.484375 1.125l0 0.078125q0 0.640625 -0.375 1.375q-0.375 0.71875 -1.6875 2.0q-0.953125 0.921875 -1.1875 1.3125q-0.21875 0.390625 -0.21875 0.6875l-1.546875 0l0 -1.5q0 -0.828125 -0.453125 -2.515625q-0.46875 -1.703125 -0.46875 -2.53125q0 -2.75 2.984375 -3.890625l1.546875 1.34375l1.546875 -1.359375q1.28125 0.515625 2.0625 1.4375q0.78125 0.90625 0.78125 2.03125l0 6.984375zm-4.59375 -4.890625q0.21875 0 0.390625 -0.171875q0.171875 -0.171875 0.171875 -0.390625q0 -0.21875 -0.171875 -0.375q-0.171875 -0.171875 -0.390625 -0.171875q-0.21875 0 -0.390625 0.171875q-0.171875 0.15625 -0.171875 0.375q0 0.21875 0.171875 0.390625q0.171875 0.171875 0.390625 0.171875zm6.1772766 -10.078125q-0.34375 1.53125 -1.40625 2.359375q-1.0625 0.828125 -2.640625 0.828125q-1.28125 0 -2.109375 -0.59375q-0.828125 -0.609375 -0.828125 -1.515625q0 -0.609375 0.4375 -1.046875q0.421875 -0.4375 1.046875 -0.4375q0.59375 0 1.03125 0.4375q0.4375 0.4375 0.4375 1.03125q0 0.671875 -0.46875 1.078125q0.125 0.0625 0.453125 0.0625q2.5 0 3.03125 -2.203125l1.015625 0zm-5.5 1.546875q0.1875 0 0.328125 -0.140625q0.140625 -0.140625 0.140625 -0.34375q0 -0.1875 -0.140625 -0.328125q-0.140625 -0.15625 -0.328125 -0.15625q-0.203125 0 -0.34375 0.15625q-0.140625 0.140625 -0.140625 0.328125q0 0.203125 0.140625 0.34375q0.140625 0.140625 0.34375 0.140625zm13.59375 10.96875q0 1.21875 -0.546875 1.890625q-0.53125 0.65625 -1.515625 0.65625q-0.65625 0 -1.140625 -0.46875q-0.46875 -0.484375 -0.46875 -1.140625q0 -0.65625 0.46875 -1.125q0.484375 -0.46875 1.140625 -0.46875q0.265625 0 0.546875 0.078125l0 -3.625q0 -1.09375 -0.515625 -1.71875q-0.515625 -0.640625 -1.875 -0.640625q-2.0625 0 -2.546875 1.796875l-1.46875 -0.203125q0.609375 -2.984375 4.265625 -2.984375q3.65625 0 3.65625 3.640625l0 4.3125zm-2.0625 1.5q0.21875 0 0.375 -0.15625q0.171875 -0.171875 0.171875 -0.40625q0 -0.21875 -0.171875 -0.375q-0.15625 -0.171875 -0.375 -0.171875q-0.21875 0 -0.390625 0.171875q-0.171875 0.15625 -0.171875 0.375q0 0.234375 0.171875 0.40625q0.171875 0.15625 0.390625 0.15625zm12.511536 -0.5625q0 -0.21875 -0.171875 -0.375q-0.171875 -0.171875 -0.390625 -0.171875q-0.21875 0 -0.390625 0.171875q-0.171875 0.15625 -0.171875 0.375q0 0.234375 0.171875 0.40625q0.171875 0.15625 0.390625 0.15625q0.21875 0 0.390625 -0.15625q0.171875 -0.171875 0.171875 -0.40625zm1.046875 0q0 0.65625 -0.484375 1.140625q-0.46875 0.46875 -1.125 0.46875q-0.984375 0 -1.53125 -0.65625q-0.53125 -0.671875 -0.53125 -1.890625l0 -7.875l1.5 0l0 7.296875q0.296875 -0.078125 0.5625 -0.078125q0.65625 0 1.125 0.46875q0.484375 0.46875 0.484375 1.125zm-6.0625 0q0 -0.21875 -0.171875 -0.375q-0.171875 -0.171875 -0.390625 -0.171875q-0.21875 0 -0.390625 0.171875q-0.171875 0.15625 -0.171875 0.375q0 0.234375 0.171875 0.40625q0.171875 0.15625 0.390625 0.15625q0.21875 0 0.390625 -0.15625q0.171875 -0.171875 0.171875 -0.40625zm1.046875 0q0 0.65625 -0.484375 1.140625q-0.46875 0.46875 -1.125 0.46875q-0.984375 0 -1.53125 -0.65625q-0.53125 -0.671875 -0.53125 -1.890625l0 -7.875l1.5 0l0 7.296875q0.296875 -0.078125 0.5625 -0.078125q0.65625 0 1.125 0.46875q0.484375 0.46875 0.484375 1.125zm15.523987 -0.375q0 1.1875 -0.40625 1.546875q-0.390625 0.34375 -1.734375 0.34375l-6.296875 0l0 -1.28125l1.203125 0l0 -6.0q-0.28125 0.109375 -0.546875 0.109375q-0.65625 0 -1.140625 -0.484375q-0.46875 -0.484375 -0.46875 -1.140625q0 -0.65625 0.46875 -1.125q0.46875 -0.46875 1.140625 -0.46875q0.96875 0 1.515625 0.6875q0.546875 0.671875 0.546875 1.875l0 6.546875l3.703125 0q0.5 0 0.5 -0.546875l0 -13.65625l1.515625 0l0 13.59375zm-7.78125 -6.328125q0.21875 0 0.375 -0.171875q0.171875 -0.171875 0.171875 -0.40625q0 -0.21875 -0.171875 -0.375q-0.15625 -0.171875 -0.375 -0.171875q-0.234375 0 -0.40625 0.171875q-0.15625 0.15625 -0.15625 0.375q0 0.234375 0.15625 0.40625q0.171875 0.171875 0.40625 0.171875zm17.325714 -0.96875q-0.5625 0.171875 -1.71875 0.171875l-2.5625 -0.109375q-0.765625 0 -1.171875 0.40625q-0.390625 0.390625 -0.390625 0.90625q0 0.09375 0.015625 0.171875q0.953125 -0.1875 2.046875 -0.1875q1.875 0 2.71875 0.640625q0.84375 0.625 0.84375 2.578125l0 2.15625q0 1.21875 -0.53125 1.890625q-0.53125 0.65625 -1.53125 0.65625q-0.65625 0 -1.140625 -0.46875q-0.46875 -0.484375 -0.46875 -1.140625q0 -0.65625 0.46875 -1.125q0.484375 -0.46875 1.140625 -0.46875q0.28125 0 0.5625 0.078125l0 -1.53125q0 -0.96875 -0.40625 -1.46875q-0.40625 -0.515625 -1.65625 -0.515625q-1.734375 0 -3.296875 0.4375q-0.0625 -0.5625 -0.0625 -1.109375q0 -3.1875 2.84375 -3.1875l2.5625 0.109375q0.96875 0 1.5625 -0.15625l0.171875 1.265625zm-2.28125 8.234375q0.234375 0 0.390625 -0.15625q0.171875 -0.171875 0.171875 -0.40625q0 -0.21875 -0.171875 -0.375q-0.15625 -0.171875 -0.390625 -0.171875q-0.21875 0 -0.390625 0.171875q-0.171875 0.15625 -0.171875 0.375q0 0.234375 0.171875 0.40625q0.171875 0.15625 0.390625 0.15625z" fill-rule="nonzero"/><path fill="#000000" d="m391.62384 190.73889l3.53125 -5.03125l-3.265625 -4.640625l2.046875 0l1.484375 2.265625q0.421875 0.640625 0.671875 1.078125q0.40625 -0.59375 0.734375 -1.0625l1.640625 -2.28125l1.953125 0l-3.34375 4.546875l3.59375 5.125l-2.015625 0l-1.984375 -3.0l-0.515625 -0.8125l-2.546875 3.8125l-1.984375 0z" fill-rule="nonzero"/><path fill="#000000" d="m415.0415 189.22327q0 -0.21875 -0.171875 -0.375q-0.171875 -0.171875 -0.390625 -0.171875q-0.21875 0 -0.390625 0.171875q-0.171875 0.15625 -0.171875 0.375q0 0.234375 0.171875 0.40625q0.171875 0.15625 0.390625 0.15625q0.21875 0 0.390625 -0.15625q0.171875 -0.171875 0.171875 -0.40625zm1.046875 0q0 0.65625 -0.484375 1.140625q-0.46875 0.46875 -1.125 0.46875q-0.984375 0 -1.53125 -0.65625q-0.53125 -0.671875 -0.53125 -1.890625l0 -7.875l1.5 0l0 7.296875q0.296875 -0.078125 0.5625 -0.078125q0.65625 0 1.125 0.46875q0.484375 0.46875 0.484375 1.125zm-6.0625 0q0 -0.21875 -0.171875 -0.375q-0.171875 -0.171875 -0.390625 -0.171875q-0.21875 0 -0.390625 0.171875q-0.171875 0.15625 -0.171875 0.375q0 0.234375 0.171875 0.40625q0.171875 0.15625 0.390625 0.15625q0.21875 0 0.390625 -0.15625q0.171875 -0.171875 0.171875 -0.40625zm1.046875 0q0 0.65625 -0.484375 1.140625q-0.46875 0.46875 -1.125 0.46875q-0.984375 0 -1.53125 -0.65625q-0.53125 -0.671875 -0.53125 -1.890625l0 -7.875l1.5 0l0 7.296875q0.296875 -0.078125 0.5625 -0.078125q0.65625 0 1.125 0.46875q0.484375 0.46875 0.484375 1.125zm14.883392 1.515625l-1.515625 0l0 -1.921875q-0.453125 -1.40625 -1.34375 -2.34375q-0.875 -0.953125 -1.875 -0.953125q-0.890625 0 -1.328125 0.484375q-0.4375 0.484375 -0.4375 1.4375l0 0.265625q0.28125 -0.078125 0.5625 -0.078125q0.65625 0 1.125 0.46875q0.484375 0.46875 0.484375 1.125q0 0.65625 -0.484375 1.140625q-0.46875 0.46875 -1.125 0.46875q-0.984375 0 -1.53125 -0.65625q-0.546875 -0.671875 -0.546875 -1.890625l0 -0.875q0 -1.4375 0.875 -2.3125q0.875 -0.875 2.421875 -0.875q1.03125 0 1.890625 0.609375q0.859375 0.609375 1.3125 1.640625l0 -2.390625q0 -1.09375 -0.578125 -1.71875q-0.578125 -0.640625 -2.09375 -0.640625q-1.171875 0 -1.890625 0.453125q-0.703125 0.453125 -0.9375 1.34375l-1.484375 -0.203125q0.328125 -1.5 1.46875 -2.234375q1.140625 -0.75 3.09375 -0.75q2.015625 0 2.96875 0.859375q0.96875 0.859375 0.96875 2.78125l0 6.765625zm-5.9375 -0.953125q0.21875 0 0.390625 -0.15625q0.171875 -0.171875 0.171875 -0.40625q0 -0.21875 -0.171875 -0.375q-0.171875 -0.171875 -0.390625 -0.171875q-0.21875 0 -0.390625 0.171875q-0.171875 0.15625 -0.171875 0.375q0 0.234375 0.171875 0.40625q0.171875 0.15625 0.390625 0.15625zm15.034424 -8.140625q-0.34375 1.53125 -1.40625 2.359375q-1.046875 0.828125 -2.640625 0.828125q-1.28125 0 -2.109375 -0.609375q-0.828125 -0.609375 -0.828125 -1.515625q0 -0.609375 0.4375 -1.046875q0.4375 -0.4375 1.046875 -0.4375q0.59375 0 1.03125 0.4375q0.4375 0.4375 0.4375 1.03125q0 0.671875 -0.46875 1.09375q0.125 0.046875 0.453125 0.046875q1.25 0 2.0 -0.546875q0.765625 -0.546875 1.03125 -1.640625l1.015625 0zm-5.5 1.546875q0.1875 0 0.328125 -0.140625q0.15625 -0.15625 0.15625 -0.359375q0 -0.1875 -0.15625 -0.328125q-0.140625 -0.15625 -0.328125 -0.15625q-0.1875 0 -0.34375 0.15625q-0.140625 0.140625 -0.140625 0.328125q0 0.203125 0.140625 0.359375q0.15625 0.140625 0.34375 0.140625zm5.5 3.4375q-0.34375 1.546875 -1.40625 2.375q-1.046875 0.828125 -2.640625 0.828125q-1.28125 0 -2.109375 -0.609375q-0.828125 -0.609375 -0.828125 -1.515625q0 -0.609375 0.4375 -1.046875q0.4375 -0.4375 1.046875 -0.4375q0.59375 0 1.03125 0.4375q0.4375 0.4375 0.4375 1.03125q0 0.671875 -0.46875 1.09375q0.125 0.046875 0.453125 0.046875q1.25 0 2.0 -0.546875q0.765625 -0.546875 1.03125 -1.65625l1.015625 0zm-5.5 1.546875q0.1875 0 0.328125 -0.140625q0.15625 -0.140625 0.15625 -0.34375q0 -0.1875 -0.15625 -0.328125q-0.140625 -0.15625 -0.328125 -0.15625q-0.1875 0 -0.34375 0.15625q-0.140625 0.140625 -0.140625 0.328125q0 0.203125 0.140625 0.34375q0.15625 0.140625 0.34375 0.140625z" fill-rule="nonzero"/><path fill="#000000" d="m442.03116 194.45764l-0.1875 -1.53125q0.546875 0.140625 0.9375 0.140625q0.546875 0 0.875 -0.1875q0.328125 -0.171875 0.546875 -0.5q0.15625 -0.25 0.5 -1.21875q0.046875 -0.140625 0.140625 -0.40625l-3.671875 -9.6875l1.765625 0l2.015625 5.59375q0.390625 1.078125 0.703125 2.25q0.28125 -1.125 0.671875 -2.203125l2.078125 -5.640625l1.640625 0l-3.6875 9.828125q-0.59375 1.609375 -0.921875 2.203125q-0.4375 0.8125 -1.0 1.1875q-0.5625 0.375 -1.34375 0.375q-0.484375 0 -1.0625 -0.203125z" fill-rule="nonzero"/><path fill="#00ffff" d="m373.75067 266.7244l142.33069 0l0 62.204742l-142.33069 0z" fill-rule="evenodd"/><path stroke="#000000" stroke-width="1.0" stroke-linejoin="round" stroke-linecap="butt" d="m373.75067 266.7244l142.33069 0l0 62.204742l-142.33069 0z" fill-rule="evenodd"/><path fill="#000000" d="m415.08487 293.278l0 -1.890625l1.640625 0l0 1.890625l-1.640625 0zm0 11.46875l0 -9.671875l1.640625 0l0 9.671875l-1.640625 0zm4.144806 0l0 -9.671875l1.46875 0l0 1.375q1.0625 -1.59375 3.078125 -1.59375q0.875 0 1.609375 0.3125q0.734375 0.3125 1.09375 0.828125q0.375 0.5 0.515625 1.203125q0.09375 0.453125 0.09375 1.59375l0 5.953125l-1.640625 0l0 -5.890625q0 -1.0 -0.203125 -1.484375q-0.1875 -0.5 -0.671875 -0.796875q-0.484375 -0.296875 -1.140625 -0.296875q-1.046875 0 -1.8125 0.671875q-0.75 0.65625 -0.75 2.515625l0 5.28125l-1.640625 0zm13.953857 -1.46875l0.234375 1.453125q-0.6875 0.140625 -1.234375 0.140625q-0.890625 0 -1.390625 -0.28125q-0.484375 -0.28125 -0.6875 -0.734375q-0.203125 -0.46875 -0.203125 -1.9375l0 -5.578125l-1.203125 0l0 -1.265625l1.203125 0l0 -2.390625l1.625 -0.984375l0 3.375l1.65625 0l0 1.265625l-1.65625 0l0 5.671875q0 0.6875 0.078125 0.890625q0.09375 0.203125 0.28125 0.328125q0.203125 0.109375 0.578125 0.109375q0.265625 0 0.71875 -0.0625zm6.1322327 -1.421875l1.625 -0.25q0.125 0.96875 0.75 1.5q0.625 0.515625 1.75 0.515625q1.125 0 1.671875 -0.453125q0.546875 -0.46875 0.546875 -1.09375q0 -0.546875 -0.484375 -0.875q-0.328125 -0.21875 -1.671875 -0.546875q-1.8125 -0.46875 -2.515625 -0.796875q-0.6875 -0.328125 -1.046875 -0.90625q-0.359375 -0.59375 -0.359375 -1.3125q0 -0.640625 0.296875 -1.1875q0.296875 -0.5625 0.8125 -0.921875q0.375 -0.28125 1.03125 -0.46875q0.671875 -0.203125 1.421875 -0.203125q1.140625 0 2.0 0.328125q0.859375 0.328125 1.265625 0.890625q0.421875 0.5625 0.578125 1.5l-1.609375 0.21875q-0.109375 -0.75 -0.640625 -1.171875q-0.515625 -0.421875 -1.46875 -0.421875q-1.140625 0 -1.625 0.375q-0.46875 0.375 -0.46875 0.875q0 0.3125 0.1875 0.578125q0.203125 0.265625 0.640625 0.4375q0.234375 0.09375 1.4375 0.421875q1.75 0.453125 2.4375 0.75q0.6875 0.296875 1.078125 0.859375q0.390625 0.5625 0.390625 1.40625q0 0.828125 -0.484375 1.546875q-0.46875 0.71875 -1.375 1.125q-0.90625 0.390625 -2.046875 0.390625q-1.875 0 -2.875 -0.78125q-0.984375 -0.78125 -1.25 -2.328125zm16.3125 2.890625l0 -1.421875q-1.125 1.640625 -3.0625 1.640625q-0.859375 0 -1.609375 -0.328125q-0.734375 -0.328125 -1.09375 -0.828125q-0.359375 -0.5 -0.5 -1.21875q-0.109375 -0.46875 -0.109375 -1.53125l0 -5.984375l1.640625 0l0 5.359375q0 1.28125 0.109375 1.734375q0.15625 0.640625 0.65625 1.015625q0.5 0.375 1.234375 0.375q0.734375 0 1.375 -0.375q0.65625 -0.390625 0.921875 -1.03125q0.265625 -0.65625 0.265625 -1.890625l0 -5.1875l1.640625 0l0 9.671875l-1.46875 0zm4.047577 0l0 -9.671875l1.46875 0l0 1.359375q0.453125 -0.71875 1.203125 -1.140625q0.765625 -0.4375 1.71875 -0.4375q1.078125 0 1.765625 0.453125q0.6875 0.4375 0.96875 1.234375q1.15625 -1.6875 2.984375 -1.6875q1.453125 0 2.21875 0.796875q0.78125 0.796875 0.78125 2.453125l0 6.640625l-1.640625 0l0 -6.09375q0 -0.984375 -0.15625 -1.40625q-0.15625 -0.4375 -0.578125 -0.703125q-0.421875 -0.265625 -0.984375 -0.265625q-1.015625 0 -1.6875 0.6875q-0.671875 0.671875 -0.671875 2.15625l0 5.625l-1.640625 0l0 -6.28125q0 -1.09375 -0.40625 -1.640625q-0.40625 -0.546875 -1.3125 -0.546875q-0.6875 0 -1.28125 0.359375q-0.59375 0.359375 -0.859375 1.0625q-0.25 0.703125 -0.25 2.03125l0 5.015625l-1.640625 0z" fill-rule="nonzero"/><path fill="#000000" fill-opacity="0.0" d="m444.9147 206.90552l0 59.811005" fill-rule="evenodd"/><path stroke="#000000" stroke-width="1.0" stroke-linejoin="round" stroke-linecap="butt" d="m444.9147 206.90552l0 53.811005" fill-rule="evenodd"/><path fill="#000000" stroke="#000000" stroke-width="1.0" stroke-linecap="butt" d="m443.26297 260.71652l1.6517334 4.5381165l1.6517334 -4.5381165z" fill-rule="evenodd"/><path fill="#000000" fill-opacity="0.0" d="m444.91733 330.6929l0 58.614197" fill-rule="evenodd"/><path stroke="#000000" stroke-width="1.0" stroke-linejoin="round" stroke-linecap="butt" d="m444.91733 330.6929l0 52.614197" fill-rule="evenodd"/><path fill="#000000" stroke="#000000" stroke-width="1.0" stroke-linecap="butt" d="m443.2656 383.3071l1.6517334 4.538086l1.6517334 -4.538086z" fill-rule="evenodd"/><path fill="#00ffff" d="m379.1391 391.07086l131.55905 0l0 68.188995l-131.55905 0z" fill-rule="evenodd"/><path stroke="#000000" stroke-width="1.0" stroke-linejoin="round" stroke-linecap="butt" d="m379.1391 391.07086l131.55905 0l0 68.188995l-131.55905 0z" fill-rule="evenodd"/><path fill="#000000" d="m396.1391 430.56973q0 -0.21875 -0.171875 -0.375q-0.15625 -0.171875 -0.390625 -0.171875q-0.21875 0 -0.390625 0.171875q-0.15625 0.15625 -0.15625 0.375q0 0.234375 0.15625 0.40625q0.171875 0.15625 0.390625 0.15625q0.234375 0 0.390625 -0.15625q0.171875 -0.171875 0.171875 -0.40625zm1.046875 0q0 0.65625 -0.484375 1.140625q-0.46875 0.46875 -1.125 0.46875q-1.0 0 -1.53125 -0.65625q-0.53125 -0.671875 -0.53125 -1.890625l0 -10.265625q0 -1.609375 -1.5625 -1.609375q-0.703125 0 -1.15625 0.34375q-0.453125 0.34375 -0.5625 0.828125l0.53125 -0.03125q0.65625 0 1.125 0.46875q0.484375 0.46875 0.484375 1.125q0 0.65625 -0.484375 1.140625q-0.46875 0.46875 -1.125 0.46875q-0.90625 0 -1.484375 -0.6875q-0.578125 -0.703125 -0.578125 -1.765625q0 -1.390625 0.90625 -2.203125q0.90625 -0.8125 2.328125 -0.8125q1.390625 0 2.234375 0.75q0.859375 0.734375 0.859375 1.984375l0 9.6875q0.28125 -0.078125 0.546875 -0.078125q0.65625 0 1.125 0.46875q0.484375 0.46875 0.484375 1.125zm-6.421875 -9.5q0.21875 0 0.390625 -0.171875q0.171875 -0.171875 0.171875 -0.40625q0 -0.21875 -0.171875 -0.375q-0.171875 -0.171875 -0.390625 -0.171875q-0.21875 0 -0.390625 0.171875q-0.171875 0.15625 -0.171875 0.375q0 0.234375 0.171875 0.40625q0.171875 0.171875 0.390625 0.171875zm15.298035 4.03125q-0.875 -0.90625 -0.875 -1.71875q0 -0.78125 0.484375 -1.234375q0.5 -0.46875 1.25 -0.46875q0.734375 0 1.21875 0.453125q0.5 0.453125 0.5 1.25q0 0.90625 -0.96875 1.765625q0.484375 0.671875 0.484375 1.515625l0 5.421875l-1.5 0l0 -5.390625q0 -0.328125 -0.109375 -0.671875q-3.125 2.4375 -4.671875 6.0625l-1.40625 0l0 -7.296875q-0.28125 0.09375 -0.546875 0.09375q-0.65625 0 -1.140625 -0.46875q-0.46875 -0.484375 -0.46875 -1.140625q0 -0.65625 0.46875 -1.125q0.46875 -0.46875 1.140625 -0.46875q0.984375 0 1.515625 0.671875q0.546875 0.65625 0.546875 1.875l0 5.3125q1.28125 -2.40625 4.078125 -4.4375zm0.921875 -0.671875q0.609375 -0.4375 0.609375 -1.046875q0 -0.703125 -0.671875 -0.703125q-0.6875 0 -0.6875 0.703125q0 0.40625 0.75 1.046875zm-7.0625 -0.59375q0.21875 0 0.375 -0.15625q0.171875 -0.171875 0.171875 -0.40625q0 -0.21875 -0.171875 -0.375q-0.15625 -0.171875 -0.375 -0.171875q-0.234375 0 -0.40625 0.171875q-0.15625 0.15625 -0.15625 0.375q0 0.234375 0.15625 0.40625q0.171875 0.15625 0.40625 0.15625zm10.056976 -5.5625q-0.484375 1.21875 -1.734375 2.015625q-1.265625 0.78125 -2.78125 0.78125l-0.6875 0l0 -0.734375q0.515625 -0.375 0.796875 -0.953125q-0.453125 0 -0.765625 -0.3125q-0.328125 -0.328125 -0.328125 -0.78125q0 -0.4375 0.328125 -0.75q0.3125 -0.328125 0.765625 -0.328125q0.53125 0 0.90625 0.34375q0.359375 0.34375 0.359375 0.96875q0 0.71875 -0.78125 1.5625q2.328125 -0.328125 3.15625 -2.703125l0.765625 0.890625zm-4.40625 0.421875q0.171875 0 0.296875 -0.109375q0.109375 -0.125 0.109375 -0.296875q0 -0.15625 -0.109375 -0.28125q-0.125 -0.125 -0.296875 -0.125q-0.171875 0 -0.296875 0.125q-0.125 0.125 -0.125 0.28125q0 0.171875 0.125 0.296875q0.125 0.109375 0.296875 0.109375z" fill-rule="nonzero"/><path fill="#000000" d="m415.70868 429.19473l1.625 -0.25q0.125 0.96875 0.75 1.5q0.625 0.515625 1.75 0.515625q1.125 0 1.671875 -0.453125q0.546875 -0.46875 0.546875 -1.09375q0 -0.546875 -0.484375 -0.875q-0.328125 -0.21875 -1.671875 -0.546875q-1.8125 -0.46875 -2.515625 -0.796875q-0.6875 -0.328125 -1.046875 -0.90625q-0.359375 -0.59375 -0.359375 -1.3125q0 -0.640625 0.296875 -1.1875q0.296875 -0.5625 0.8125 -0.921875q0.375 -0.28125 1.03125 -0.46875q0.671875 -0.203125 1.421875 -0.203125q1.140625 0 2.0 0.328125q0.859375 0.328125 1.265625 0.890625q0.421875 0.5625 0.578125 1.5l-1.609375 0.21875q-0.109375 -0.75 -0.640625 -1.171875q-0.515625 -0.421875 -1.46875 -0.421875q-1.140625 0 -1.625 0.375q-0.46875 0.375 -0.46875 0.875q0 0.3125 0.1875 0.578125q0.203125 0.265625 0.640625 0.4375q0.234375 0.09375 1.4375 0.421875q1.75 0.453125 2.4375 0.75q0.6875 0.296875 1.078125 0.859375q0.390625 0.5625 0.390625 1.40625q0 0.828125 -0.484375 1.546875q-0.46875 0.71875 -1.375 1.125q-0.90625 0.390625 -2.046875 0.390625q-1.875 0 -2.875 -0.78125q-0.984375 -0.78125 -1.25 -2.328125zm16.3125 2.890625l0 -1.421875q-1.125 1.640625 -3.0625 1.640625q-0.859375 0 -1.609375 -0.328125q-0.734375 -0.328125 -1.09375 -0.828125q-0.359375 -0.5 -0.5 -1.21875q-0.109375 -0.46875 -0.109375 -1.53125l0 -5.984375l1.640625 0l0 5.359375q0 1.28125 0.109375 1.734375q0.15625 0.640625 0.65625 1.015625q0.5 0.375 1.234375 0.375q0.734375 0 1.375 -0.375q0.65625 -0.390625 0.921875 -1.03125q0.265625 -0.65625 0.265625 -1.890625l0 -5.1875l1.640625 0l0 9.671875l-1.46875 0zm4.047577 0l0 -9.671875l1.46875 0l0 1.359375q0.453125 -0.71875 1.203125 -1.140625q0.765625 -0.4375 1.71875 -0.4375q1.078125 0 1.765625 0.453125q0.6875 0.4375 0.96875 1.234375q1.15625 -1.6875 2.984375 -1.6875q1.453125 0 2.21875 0.796875q0.78125 0.796875 0.78125 2.453125l0 6.640625l-1.640625 0l0 -6.09375q0 -0.984375 -0.15625 -1.40625q-0.15625 -0.4375 -0.578125 -0.703125q-0.421875 -0.265625 -0.984375 -0.265625q-1.015625 0 -1.6875 0.6875q-0.671875 0.671875 -0.671875 2.15625l0 5.625l-1.640625 0l0 -6.28125q0 -1.09375 -0.40625 -1.640625q-0.40625 -0.546875 -1.3125 -0.546875q-0.6875 0 -1.28125 0.359375q-0.59375 0.359375 -0.859375 1.0625q-0.25 0.703125 -0.25 2.03125l0 5.015625l-1.640625 0zm24.165802 -7.859375l-8.828125 0l0 -1.515625l8.828125 0l0 1.515625zm0 4.0625l-8.828125 0l0 -1.53125l8.828125 0l0 1.53125zm1.1762085 3.796875l3.53125 -5.03125l-3.265625 -4.640625l2.046875 0l1.484375 2.265625q0.421875 0.640625 0.671875 1.078125q0.40625 -0.59375 0.734375 -1.0625l1.640625 -2.28125l1.953125 0l-3.34375 4.546875l3.59375 5.125l-2.015625 0l-1.984375 -3.0l-0.515625 -0.8125l-2.546875 3.8125l-1.984375 0zm13.859375 -2.15625l0 -3.671875l-3.640625 0l0 -1.515625l3.640625 0l0 -3.640625l1.546875 0l0 3.640625l3.640625 0l0 1.515625l-3.640625 0l0 3.671875l-1.546875 0zm7.3793335 5.875l-0.1875 -1.53125q0.546875 0.140625 0.9375 0.140625q0.546875 0 0.875 -0.1875q0.328125 -0.171875 0.546875 -0.5q0.15625 -0.25 0.5 -1.21875q0.046875 -0.140625 0.140625 -0.40625l-3.671875 -9.6875l1.765625 0l2.015625 5.59375q0.390625 1.078125 0.703125 2.25q0.28125 -1.125 0.671875 -2.203125l2.078125 -5.640625l1.640625 0l-3.6875 9.828125q-0.59375 1.609375 -0.921875 2.203125q-0.4375 0.8125 -1.0 1.1875q-0.5625 0.375 -1.34375 0.375q-0.484375 0 -1.0625 -0.203125z" fill-rule="nonzero"/><path fill="#00ff00" d="m326.5105 575.28345l47.362213 -68.188965l189.44882 0l-47.362244 68.188965z" fill-rule="evenodd"/><path stroke="#000000" stroke-width="1.0" stroke-linejoin="round" stroke-linecap="butt" d="m326.5105 575.28345l47.362213 -68.188965l189.44882 0l-47.362244 68.188965z" fill-rule="evenodd"/><path fill="#000000" d="m391.9196 546.5933q0 -0.21875 -0.171875 -0.375q-0.171875 -0.171875 -0.390625 -0.171875q-0.21875 0 -0.390625 0.171875q-0.171875 0.15625 -0.171875 0.375q0 0.234375 0.171875 0.40625q0.171875 0.15625 0.390625 0.15625q0.21875 0 0.390625 -0.15625q0.171875 -0.171875 0.171875 -0.40625zm1.046875 0q0 0.65625 -0.484375 1.140625q-0.46875 0.46875 -1.125 0.46875q-0.984375 0 -1.53125 -0.65625q-0.53125 -0.671875 -0.53125 -1.890625l0 -7.875l1.5 0l0 7.296875q0.296875 -0.078125 0.5625 -0.078125q0.65625 0 1.125 0.46875q0.484375 0.46875 0.484375 1.125zm-6.0625 0q0 -0.21875 -0.171875 -0.375q-0.171875 -0.171875 -0.390625 -0.171875q-0.21875 0 -0.390625 0.171875q-0.171875 0.15625 -0.171875 0.375q0 0.234375 0.171875 0.40625q0.171875 0.15625 0.390625 0.15625q0.21875 0 0.390625 -0.15625q0.171875 -0.171875 0.171875 -0.40625zm1.046875 0q0 0.65625 -0.484375 1.140625q-0.46875 0.46875 -1.125 0.46875q-0.984375 0 -1.53125 -0.65625q-0.53125 -0.671875 -0.53125 -1.890625l0 -7.875l1.5 0l0 7.296875q0.296875 -0.078125 0.5625 -0.078125q0.65625 0 1.125 0.46875q0.484375 0.46875 0.484375 1.125zm15.711487 -10.6875q0 0.796875 -0.421875 1.5q-0.40625 0.6875 -1.25 1.28125q0.84375 0.890625 0.84375 2.65625l0 6.765625l-1.515625 0l0 -1.921875q-0.453125 -1.40625 -1.34375 -2.34375q-0.875 -0.953125 -1.875 -0.953125q-0.890625 0 -1.328125 0.484375q-0.4375 0.484375 -0.4375 1.4375l0 0.265625q0.28125 -0.078125 0.5625 -0.078125q0.65625 0 1.125 0.46875q0.484375 0.46875 0.484375 1.125q0 0.65625 -0.484375 1.140625q-0.46875 0.46875 -1.125 0.46875q-0.984375 0 -1.53125 -0.65625q-0.546875 -0.671875 -0.546875 -1.890625l0 -0.875q0 -1.4375 0.875 -2.3125q0.875 -0.875 2.421875 -0.875q1.03125 0 1.890625 0.609375q0.859375 0.609375 1.3125 1.640625l0 -2.390625q0 -1.09375 -0.578125 -1.71875q-0.578125 -0.640625 -2.09375 -0.640625q-1.171875 0 -1.890625 0.453125q-0.703125 0.453125 -0.9375 1.34375l-1.484375 -0.203125q0.328125 -1.5 1.46875 -2.234375q1.140625 -0.75 3.09375 -0.75q1.28125 0 2.078125 0.328125q0.59375 -0.46875 0.890625 -1.0q0.296875 -0.53125 0.296875 -1.15625l0 -0.0625l1.5 0l0 0.09375zm-6.765625 11.25q0.21875 0 0.390625 -0.15625q0.171875 -0.171875 0.171875 -0.40625q0 -0.21875 -0.171875 -0.375q-0.171875 -0.171875 -0.390625 -0.171875q-0.21875 0 -0.390625 0.171875q-0.171875 0.15625 -0.171875 0.375q0 0.234375 0.171875 0.40625q0.171875 0.15625 0.390625 0.15625zm17.228394 0.953125l-1.515625 0l0 -6.9375q0 -0.875 -0.84375 -1.46875q-0.828125 -0.609375 -2.03125 -0.609375q-1.265625 0 -2.15625 0.671875q-0.890625 0.671875 -0.890625 1.71875q0 0.859375 0.546875 2.765625q0.390625 1.375 0.390625 1.828125q0.109375 -0.171875 0.5625 -0.6875q0.703125 -0.828125 0.890625 -1.1875q-0.515625 -0.171875 -0.828125 -0.59375q-0.3125 -0.421875 -0.3125 -0.953125q0 -0.65625 0.46875 -1.125q0.46875 -0.46875 1.125 -0.46875q0.65625 0 1.125 0.46875q0.484375 0.46875 0.484375 1.125l0 0.078125q0 0.640625 -0.375 1.375q-0.375 0.71875 -1.71875 2.0q-0.953125 0.921875 -1.1875 1.3125q-0.234375 0.390625 -0.234375 0.6875l-1.5 0l0 -1.515625q0 -0.796875 -0.453125 -2.5625q-0.46875 -1.796875 -0.46875 -2.625q0 -1.46875 1.203125 -2.578125q1.203125 -1.125 3.296875 -1.125q2.015625 0 3.21875 0.984375q1.203125 0.96875 1.203125 2.4375l0 6.984375zm-4.59375 -4.890625q0.21875 0 0.390625 -0.171875q0.171875 -0.171875 0.171875 -0.390625q0 -0.21875 -0.171875 -0.375q-0.171875 -0.171875 -0.390625 -0.171875q-0.21875 0 -0.390625 0.171875q-0.171875 0.15625 -0.171875 0.375q0 0.21875 0.171875 0.390625q0.171875 0.171875 0.390625 0.171875zm13.252899 2.484375q0 1.21875 -0.53125 1.859375q-0.515625 0.640625 -1.5 0.640625q-0.6875 0 -1.1875 -0.4375q-0.5 -0.453125 -0.921875 -1.546875q-0.9375 -2.375 -1.234375 -2.921875q-0.296875 -0.546875 -0.765625 -0.546875q-0.21875 0 -0.453125 0.078125l-0.328125 -1.359375q0.515625 -0.109375 0.765625 -0.109375q0.921875 0 1.484375 0.546875q0.578125 0.546875 1.046875 1.8125l0.71875 1.90625q0.46875 1.296875 0.875 1.296875q0.515625 0 0.515625 -1.203125l0 -4.90625q-0.28125 0.09375 -0.5625 0.09375q-0.640625 0 -1.125 -0.46875q-0.46875 -0.484375 -0.46875 -1.140625q0 -0.640625 0.46875 -1.109375q0.484375 -0.484375 1.125 -0.484375q0.984375 0 1.53125 0.671875q0.546875 0.671875 0.546875 1.875l0 5.453125zm-2.078125 -5.84375q0.21875 0 0.390625 -0.15625q0.171875 -0.171875 0.171875 -0.40625q0 -0.21875 -0.171875 -0.375q-0.171875 -0.171875 -0.390625 -0.171875q-0.21875 0 -0.390625 0.171875q-0.171875 0.15625 -0.171875 0.375q0 0.234375 0.171875 0.40625q0.171875 0.15625 0.390625 0.15625zm13.775024 8.25l-1.53125 0q-2.53125 -4.203125 -2.890625 -4.875q-0.34375 0.6875 -0.625 1.15625l-2.265625 3.71875l-1.53125 0l0 -7.859375q0 -1.15625 0.59375 -1.84375q0.609375 -0.703125 1.609375 -0.703125q0.65625 0 1.125 0.484375q0.484375 0.46875 0.484375 1.109375q0 0.65625 -0.484375 1.140625q-0.46875 0.46875 -1.125 0.46875q-0.390625 0 -0.6875 -0.09375l0 5.28125q0.375 -0.6875 0.6875 -1.203125l1.75 -2.96875l0.953125 0q2.25 3.796875 2.4375 4.171875l0 -8.3125l1.5 0l0 10.328125zm-6.640625 -8.25q0.21875 0 0.390625 -0.15625q0.171875 -0.171875 0.171875 -0.40625q0 -0.21875 -0.171875 -0.375q-0.171875 -0.171875 -0.390625 -0.171875q-0.21875 0 -0.390625 0.171875q-0.171875 0.15625 -0.171875 0.375q0 0.234375 0.171875 0.40625q0.171875 0.15625 0.390625 0.15625zm17.407501 8.25l-1.515625 0l0 -1.921875q-0.453125 -1.40625 -1.34375 -2.34375q-0.875 -0.953125 -1.875 -0.953125q-0.890625 0 -1.328125 0.484375q-0.4375 0.484375 -0.4375 1.4375l0 0.265625q0.28125 -0.078125 0.5625 -0.078125q0.65625 0 1.125 0.46875q0.484375 0.46875 0.484375 1.125q0 0.65625 -0.484375 1.140625q-0.46875 0.46875 -1.125 0.46875q-0.984375 0 -1.53125 -0.65625q-0.546875 -0.671875 -0.546875 -1.890625l0 -0.875q0 -1.4375 0.875 -2.3125q0.875 -0.875 2.421875 -0.875q1.03125 0 1.890625 0.609375q0.859375 0.609375 1.3125 1.640625l0 -2.390625q0 -1.09375 -0.578125 -1.71875q-0.578125 -0.640625 -2.09375 -0.640625q-1.171875 0 -1.890625 0.453125q-0.703125 0.453125 -0.9375 1.34375l-1.484375 -0.203125q0.328125 -1.5 1.46875 -2.234375q1.140625 -0.75 3.09375 -0.75q2.015625 0 2.96875 0.859375q0.96875 0.859375 0.96875 2.78125l0 6.765625zm-5.9375 -0.953125q0.21875 0 0.390625 -0.15625q0.171875 -0.171875 0.171875 -0.40625q0 -0.21875 -0.171875 -0.375q-0.171875 -0.171875 -0.390625 -0.171875q-0.21875 0 -0.390625 0.171875q-0.171875 0.15625 -0.171875 0.375q0 0.234375 0.171875 0.40625q0.171875 0.15625 0.390625 0.15625zm17.128204 0.953125l-1.515625 0l0 -6.9375q0 -0.875 -0.84375 -1.46875q-0.828125 -0.609375 -2.03125 -0.609375q-1.265625 0 -2.15625 0.671875q-0.890625 0.671875 -0.890625 1.71875q0 0.875 0.328125 2.03125q0.109375 0.375 0.15625 0.53125q0.265625 -1.40625 0.921875 -2.1875q0.65625 -0.796875 1.53125 -0.796875q0.65625 0 1.125 0.46875q0.484375 0.46875 0.484375 1.125q0 0.65625 -0.484375 1.140625q-0.46875 0.46875 -1.125 0.46875q-0.71875 0 -1.171875 -0.5625q-0.828125 0.75 -0.828125 2.078125l0 2.328125l-1.5 0l0 -1.515625q0 -0.765625 -0.46875 -2.609375q-0.453125 -1.828125 -0.453125 -2.578125q0 -1.46875 1.203125 -2.578125q1.203125 -1.125 3.296875 -1.125q2.015625 0 3.21875 0.984375q1.203125 0.96875 1.203125 2.4375l0 6.984375zm-4.5 -4.890625q0.21875 0 0.390625 -0.171875q0.171875 -0.171875 0.171875 -0.390625q0 -0.21875 -0.171875 -0.375q-0.171875 -0.171875 -0.390625 -0.171875q-0.21875 0 -0.390625 0.171875q-0.171875 0.15625 -0.171875 0.375q0 0.21875 0.171875 0.390625q0.171875 0.171875 0.390625 0.171875zm3.9194336 -6.125l-1.078125 0l0 -3.21875l1.078125 0l0 3.21875zm9.890625 11.015625l-1.515625 0l0 -6.65625q0 -1.0625 -0.546875 -1.703125q-0.546875 -0.65625 -1.5625 -0.65625q-1.78125 0 -2.28125 1.796875l-1.46875 -0.203125q0.703125 -2.984375 4.0 -2.984375q3.375 0 3.375 3.6875l0 6.71875z" fill-rule="nonzero"/><path fill="#000000" d="m467.72278 545.2183l1.625 -0.25q0.125 0.96875 0.75 1.5q0.625 0.515625 1.75 0.515625q1.125 0 1.671875 -0.453125q0.546875 -0.46875 0.546875 -1.09375q0 -0.546875 -0.484375 -0.875q-0.328125 -0.21875 -1.671875 -0.546875q-1.8125 -0.46875 -2.515625 -0.796875q-0.6875 -0.328125 -1.046875 -0.90625q-0.359375 -0.59375 -0.359375 -1.3125q0 -0.640625 0.296875 -1.1875q0.296875 -0.5625 0.8125 -0.921875q0.375 -0.28125 1.03125 -0.46875q0.671875 -0.203125 1.421875 -0.203125q1.140625 0 2.0 0.328125q0.859375 0.328125 1.265625 0.890625q0.421875 0.5625 0.578125 1.5l-1.609375 0.21875q-0.109375 -0.75 -0.640625 -1.171875q-0.515625 -0.421875 -1.46875 -0.421875q-1.140625 0 -1.625 0.375q-0.46875 0.375 -0.46875 0.875q0 0.3125 0.1875 0.578125q0.203125 0.265625 0.640625 0.4375q0.234375 0.09375 1.4375 0.421875q1.75 0.453125 2.4375 0.75q0.6875 0.296875 1.078125 0.859375q0.390625 0.5625 0.390625 1.40625q0 0.828125 -0.484375 1.546875q-0.46875 0.71875 -1.375 1.125q-0.90625 0.390625 -2.046875 0.390625q-1.875 0 -2.875 -0.78125q-0.984375 -0.78125 -1.25 -2.328125zm16.3125 2.890625l0 -1.421875q-1.125 1.640625 -3.0625 1.640625q-0.859375 0 -1.609375 -0.328125q-0.734375 -0.328125 -1.09375 -0.828125q-0.359375 -0.5 -0.5 -1.21875q-0.109375 -0.46875 -0.109375 -1.53125l0 -5.984375l1.640625 0l0 5.359375q0 1.28125 0.109375 1.734375q0.15625 0.640625 0.65625 1.015625q0.5 0.375 1.234375 0.375q0.734375 0 1.375 -0.375q0.65625 -0.390625 0.921875 -1.03125q0.265625 -0.65625 0.265625 -1.890625l0 -5.1875l1.640625 0l0 9.671875l-1.46875 0zm4.0476074 0l0 -9.671875l1.46875 0l0 1.359375q0.453125 -0.71875 1.203125 -1.140625q0.765625 -0.4375 1.71875 -0.4375q1.078125 0 1.765625 0.453125q0.6875 0.4375 0.96875 1.234375q1.15625 -1.6875 2.984375 -1.6875q1.453125 0 2.21875 0.796875q0.78125 0.796875 0.78125 2.453125l0 6.640625l-1.640625 0l0 -6.09375q0 -0.984375 -0.15625 -1.40625q-0.15625 -0.4375 -0.578125 -0.703125q-0.421875 -0.265625 -0.984375 -0.265625q-1.015625 0 -1.6875 0.6875q-0.671875 0.671875 -0.671875 2.15625l0 5.625l-1.640625 0l0 -6.28125q0 -1.09375 -0.40625 -1.640625q-0.40625 -0.546875 -1.3125 -0.546875q-0.6875 0 -1.28125 0.359375q-0.59375 0.359375 -0.859375 1.0625q-0.25 0.703125 -0.25 2.03125l0 5.015625l-1.640625 0z" fill-rule="nonzero"/><path fill="#000000" fill-opacity="0.0" d="m444.91864 459.25986l0 47.8425" fill-rule="evenodd"/><path stroke="#000000" stroke-width="1.0" stroke-linejoin="round" stroke-linecap="butt" d="m444.91864 459.25986l0 41.8425" fill-rule="evenodd"/><path fill="#000000" stroke="#000000" stroke-width="1.0" stroke-linecap="butt" d="m443.2669 501.10236l1.6517334 4.5381165l1.6517334 -4.5381165z" fill-rule="evenodd"/><path fill="#000000" fill-opacity="0.0" d="m444.91602 575.28345l0 46.64569" fill-rule="evenodd"/><path stroke="#000000" stroke-width="1.0" stroke-linejoin="round" stroke-linecap="butt" d="m444.91602 575.28345l0 40.64569" fill-rule="evenodd"/><path fill="#000000" stroke="#000000" stroke-width="1.0" stroke-linecap="butt" d="m443.26428 615.92914l1.6517334 4.538086l1.6517334 -4.538086z" fill-rule="evenodd"/><path fill="#ff0000" d="m400.30338 623.1181l89.23041 0l0 0c11.689423 0 21.165588 9.816589 21.165588 21.925964c0 12.109436 -9.476166 21.926025 -21.165588 21.926025l-89.23041 0l0 0c-11.689423 0 -21.165588 -9.816589 -21.165588 -21.926025c0 -12.109375 9.476166 -21.925964 21.165588 -21.925964z" fill-rule="evenodd"/><path stroke="#000000" stroke-width="1.0" stroke-linejoin="round" stroke-linecap="butt" d="m400.30338 623.1181l89.23041 0l0 0c11.689423 0 21.165588 9.816589 21.165588 21.925964c0 12.109436 -9.476166 21.926025 -21.165588 21.926025l-89.23041 0l0 0c-11.689423 0 -21.165588 -9.816589 -21.165588 -21.926025c0 -12.109375 9.476166 -21.925964 21.165588 -21.925964z" fill-rule="evenodd"/><path fill="#000000" d="m432.09012 651.9641l0 -13.359375l9.65625 0l0 1.578125l-7.875 0l0 4.09375l7.375 0l0 1.5625l-7.375 0l0 4.546875l8.1875 0l0 1.578125l-9.96875 0zm12.209198 0l0 -9.671875l1.46875 0l0 1.375q1.0625 -1.59375 3.078125 -1.59375q0.875 0 1.609375 0.3125q0.734375 0.3125 1.09375 0.828125q0.375 0.5 0.515625 1.203125q0.09375 0.453125 0.09375 1.59375l0 5.953125l-1.640625 0l0 -5.890625q0 -1.0 -0.203125 -1.484375q-0.1875 -0.5 -0.671875 -0.796875q-0.484375 -0.296875 -1.140625 -0.296875q-1.046875 0 -1.8125 0.671875q-0.75 0.65625 -0.75 2.515625l0 5.28125l-1.640625 0zm16.641357 0l0 -1.21875q-0.90625 1.4375 -2.703125 1.4375q-1.15625 0 -2.125 -0.640625q-0.96875 -0.640625 -1.5 -1.78125q-0.53125 -1.140625 -0.53125 -2.625q0 -1.453125 0.484375 -2.625q0.484375 -1.1875 1.4375 -1.8125q0.96875 -0.625 2.171875 -0.625q0.875 0 1.546875 0.375q0.6875 0.359375 1.109375 0.953125l0 -4.796875l1.640625 0l0 13.359375l-1.53125 0zm-5.171875 -4.828125q0 1.859375 0.78125 2.78125q0.78125 0.921875 1.84375 0.921875q1.078125 0 1.828125 -0.875q0.75 -0.890625 0.75 -2.6875q0 -1.984375 -0.765625 -2.90625q-0.765625 -0.9375 -1.890625 -0.9375q-1.078125 0 -1.8125 0.890625q-0.734375 0.890625 -0.734375 2.8125z" fill-rule="nonzero"/></g></svg>